<?xml version="1.0" encoding="UTF-8" standalone="no"?>
<svg
   version="1.1"
   viewBox="0.00 0.00 170.00 215.00"
   width="170.00"
   height="215.00"
   id="svg46"
   sodipodi:docname="bookshelf.svg"
   inkscape:version="1.3 (0e150ed6c4, 2023-07-21)"
   xmlns:inkscape="http://www.inkscape.org/namespaces/inkscape"
   xmlns:sodipodi="http://sodipodi.sourceforge.net/DTD/sodipodi-0.dtd"
   xmlns="http://www.w3.org/2000/svg"
   xmlns:svg="http://www.w3.org/2000/svg">
  <defs
     id="defs46" />
  <sodipodi:namedview
     id="namedview46"
     pagecolor="#ffffff"
     bordercolor="#000000"
     borderopacity="0.25"
     inkscape:showpageshadow="2"
     inkscape:pageopacity="0.0"
     inkscape:pagecheckerboard="0"
     inkscape:deskcolor="#d1d1d1"
     inkscape:zoom="3.6139535"
     inkscape:cx="84.94852"
     inkscape:cy="107.5"
     inkscape:window-width="1920"
     inkscape:window-height="991"
     inkscape:window-x="-9"
     inkscape:window-y="-9"
     inkscape:window-maximized="1"
     inkscape:current-layer="svg46" />
  <g
     stroke-width="2.00"
     fill="none"
     stroke-linecap="butt"
     id="g25">
    <path
       stroke="#a4b0ae"
       vector-effect="non-scaling-stroke"
       d="   M 77.4251 29.8570   A 1.43 1.43 0.0 0 0 76.5961 28.0124   L 56.5908 20.4131   A 1.43 1.43 0.0 0 0 54.7462 21.2421   L 18.3549 117.0430   A 1.43 1.43 0.0 0 0 19.1839 118.8876   L 39.1892 126.4869   A 1.43 1.43 0.0 0 0 41.0338 125.6579   L 77.4251 29.8570"
       id="path1" />
    <path
       stroke="#a4b0ae"
       vector-effect="non-scaling-stroke"
       d="   M 109.4530 21.7113   A 1.57 1.57 0.0 0 0 107.8693 20.1551   L 81.0704 20.3889   A 1.57 1.57 0.0 0 0 79.5141 21.9726   L 80.4070 124.2887   A 1.57 1.57 0.0 0 0 81.9907 125.8449   L 108.7896 125.6111   A 1.57 1.57 0.0 0 0 110.3459 124.0274   L 109.4530 21.7113"
       id="path2" />
    <path
       stroke="#a4b0ae"
       vector-effect="non-scaling-stroke"
       d="   M 142.7319 21.6113   A 1.44 1.44 0.0 0 0 141.2794 20.1839   L 114.2205 20.4201   A 1.44 1.44 0.0 0 0 112.7931 21.8726   L 113.6881 124.4287   A 1.44 1.44 0.0 0 0 115.1406 125.8561   L 142.1995 125.6199   A 1.44 1.44 0.0 0 0 143.6269 124.1674   L 142.7319 21.6113"
       id="path3" />
    <path
       stroke="#a4b0ae"
       vector-effect="non-scaling-stroke"
       d="   M 145.74 129.45   A 1.47 1.47 0.0 0 0 144.27 127.98   L 16.73 127.98   A 1.47 1.47 0.0 0 0 15.26 129.45   L 15.26 153.53   A 1.47 1.47 0.0 0 0 16.73 155.00   L 144.27 155.00   A 1.47 1.47 0.0 0 0 145.74 153.53   L 145.74 129.45"
       id="path4" />
    <path
       stroke="#a4b2b1"
       vector-effect="non-scaling-stroke"
       d="   M 145.79 159.15   A 0.44 0.44 0.0 0 0 145.35 158.71   L 15.71 158.71   A 0.44 0.44 0.0 0 0 15.27 159.15   L 15.27 196.07   A 0.44 0.44 0.0 0 0 15.71 196.51   L 145.35 196.51   A 0.44 0.44 0.0 0 0 145.79 196.07   L 145.79 159.15"
       id="path5" />
    <path
       stroke="#a4b0ae"
       vector-effect="non-scaling-stroke"
       d="   M 73.7272 29.8825   A 0.35 0.35 0.0 0 0 73.5243 29.4310   L 57.8753 23.4865   A 0.35 0.35 0.0 0 0 57.4238 23.6894   L 54.8528 30.4575   A 0.35 0.35 0.0 0 0 55.0557 30.9090   L 70.7047 36.8535   A 0.35 0.35 0.0 0 0 71.1562 36.6506   L 73.7272 29.8825"
       id="path6" />
    <path
       stroke="#a4b0ae"
       vector-effect="non-scaling-stroke"
       d="   M 69.9899 39.7590   A 0.59 0.59 0.0 0 0 69.6478 38.9980   L 54.5037 33.2452   A 0.59 0.59 0.0 0 0 53.7426 33.5873   L 27.0101 103.9610   A 0.59 0.59 0.0 0 0 27.3522 104.7220   L 42.4963 110.4748   A 0.59 0.59 0.0 0 0 43.2574 110.1327   L 69.9899 39.7590"
       id="path7" />
    <path
       stroke="#a4b0ae"
       vector-effect="non-scaling-stroke"
       d="   M 41.7255 114.3170   A 0.46 0.46 0.0 0 0 41.4578 113.7241   L 26.0042 107.8847   A 0.46 0.46 0.0 0 0 25.4113 108.1524   L 22.0745 116.9830   A 0.46 0.46 0.0 0 0 22.3422 117.5759   L 37.7958 123.4153   A 0.46 0.46 0.0 0 0 38.3887 123.1476   L 41.7255 114.3170"
       id="path8" />
    <path
       stroke="#a4b0ae"
       vector-effect="non-scaling-stroke"
       d="   M 105.1914 23.2240   A 0.40 0.40 0.0 0 0 104.7893 22.8261   L 84.1896 22.9340   A 0.40 0.40 0.0 0 0 83.7917 23.3361   L 83.8286 30.3760   A 0.40 0.40 0.0 0 0 84.2307 30.7739   L 104.8304 30.6660   A 0.40 0.40 0.0 0 0 105.2283 30.2639   L 105.1914 23.2240"
       id="path9" />
    <path
       stroke="#a4b0ae"
       vector-effect="non-scaling-stroke"
       d="   M 105.2056 33.3499   A 0.39 0.39 0.0 0 0 104.8115 32.9640   L 84.1726 33.1802   A 0.39 0.39 0.0 0 0 83.7867 33.5742   L 84.5744 108.7901   A 0.39 0.39 0.0 0 0 84.9685 109.1760   L 105.6074 108.9598   A 0.39 0.39 0.0 0 0 105.9933 108.5658   L 105.2056 33.3499"
       id="path10" />
    <path
       stroke="#a4b0ae"
       vector-effect="non-scaling-stroke"
       d="   M 105.9944 112.8053   A 0.39 0.39 0.0 0 0 105.6017 112.4180   L 84.9422 112.5622   A 0.39 0.39 0.0 0 0 84.5549 112.9550   L 84.6256 123.0747   A 0.39 0.39 0.0 0 0 85.0183 123.4620   L 105.6778 123.3178   A 0.39 0.39 0.0 0 0 106.0651 122.9250   L 105.9944 112.8053"
       id="path11" />
    <path
       stroke="#a4b0ae"
       vector-effect="non-scaling-stroke"
       d="   M 138.4878 23.2826   A 0.45 0.45 0.0 0 0 138.0363 22.8341   L 117.4764 22.9059   A 0.45 0.45 0.0 0 0 117.0280 23.3575   L 117.0522 30.2974   A 0.45 0.45 0.0 0 0 117.5037 30.7459   L 138.0636 30.6741   A 0.45 0.45 0.0 0 0 138.5120 30.2225   L 138.4878 23.2826"
       id="path12" />
    <path
       stroke="#a4b0ae"
       vector-effect="non-scaling-stroke"
       d="   M 138.6070 33.3867   A 0.41 0.41 0.0 0 0 138.1934 32.9803   L 117.5342 33.1606   A 0.41 0.41 0.0 0 0 117.1278 33.5742   L 117.3330 57.0933   A 0.41 0.41 0.0 0 0 117.7466 57.4997   L 138.4058 57.3194   A 0.41 0.41 0.0 0 0 138.8122 56.9058   L 138.6070 33.3867"
       id="path13" />
    <path
       stroke="#a4b0ae"
       vector-effect="non-scaling-stroke"
       d="   M 138.8549 61.2661   A 0.49 0.49 0.0 0 0 138.3615 60.7796   L 117.9620 60.9220   A 0.49 0.49 0.0 0 0 117.4754 61.4154   L 117.9051 122.9539   A 0.49 0.49 0.0 0 0 118.3985 123.4404   L 138.7980 123.2980   A 0.49 0.49 0.0 0 0 139.2846 122.8046   L 138.8549 61.2661"
       id="path14" />
    <path
       stroke="#a4b0ae"
       vector-effect="non-scaling-stroke"
       d="   M 28.0739 132.2614   A 0.48 0.48 0.0 0 0 27.5931 131.7822   L 18.6931 131.7978   A 0.48 0.48 0.0 0 0 18.2140 132.2786   L 18.2461 150.6786   A 0.48 0.48 0.0 0 0 18.7269 151.1578   L 27.6269 151.1422   A 0.48 0.48 0.0 0 0 28.1060 150.6614   L 28.0739 132.2614"
       id="path15" />
    <path
       stroke="#a4b0ae"
       vector-effect="non-scaling-stroke"
       d="   M 142.88 132.29   A 0.42 0.42 0.0 0 0 142.46 131.87   L 31.42 131.87   A 0.42 0.42 0.0 0 0 31.00 132.29   L 31.00 139.09   A 0.42 0.42 0.0 0 0 31.42 139.51   L 142.46 139.51   A 0.42 0.42 0.0 0 0 142.88 139.09   L 142.88 132.29"
       id="path16" />
    <path
       stroke="#a4b0ae"
       vector-effect="non-scaling-stroke"
       d="   M 142.89 143.80   A 0.46 0.46 0.0 0 0 142.43 143.34   L 31.43 143.34   A 0.46 0.46 0.0 0 0 30.97 143.80   L 30.97 150.64   A 0.46 0.46 0.0 0 0 31.43 151.10   L 142.43 151.10   A 0.46 0.46 0.0 0 0 142.89 150.64   L 142.89 143.80"
       id="path17" />
    <path
       stroke="#a4b6ba"
       vector-effect="non-scaling-stroke"
       d="   M 64.7700 191.1300   A 13.59 9.09 90.0 0 0 73.8600 177.5400   A 13.59 9.09 90.0 0 0 64.7700 163.9500   A 13.59 9.09 90.0 0 0 55.6800 177.5400   A 13.59 9.09 90.0 0 0 64.7700 191.1300"
       id="path18" />
    <path
       stroke="#a4b6ba"
       vector-effect="non-scaling-stroke"
       d="   M 94.9663 191.1300   A 13.59 9.09 90.1 0 0 104.0800 177.5559   A 13.59 9.09 90.1 0 0 95.0137 163.9500   A 13.59 9.09 90.1 0 0 85.9000 177.5241   A 13.59 9.09 90.1 0 0 94.9663 191.1300"
       id="path19" />
    <path
       stroke="#a4b6ba"
       vector-effect="non-scaling-stroke"
       d="   M 40.19 176.11   Q 43.73 170.60 39.96 166.34   C 37.62 163.70 33.09 164.05 29.87 164.35   Q 28.76 164.45 28.77 165.56   L 28.81 189.76   A 1.09 1.08 0.0 0 0 29.90 190.84   C 32.87 190.85 36.72 191.15 39.28 190.03   C 44.55 187.73 45.13 180.60 40.36 177.01   Q 39.86 176.64 40.19 176.11"
       id="path20" />
    <path
       stroke="#a4b6ba"
       vector-effect="non-scaling-stroke"
       d="   M 118.75 174.57   L 118.77 165.25   A 0.94 0.94 0.0 0 0 117.74 164.30   L 117.40 164.32   Q 116.27 164.43 116.27 165.56   L 116.28 189.43   Q 116.28 190.62 117.46 190.79   L 117.75 190.83   A 0.83 0.82 -85.5 0 0 118.69 190.02   L 118.84 179.07   A 1.87 1.87 0.0 0 1 122.30 178.10   L 130.32 190.84   A 0.66 0.66 0.0 0 0 131.42 190.86   L 131.69 190.47   Q 132.37 189.48 131.73 188.45   L 123.52 175.33   A 1.03 1.01 -39.9 0 1 123.64 174.09   L 131.38 166.00   A 0.85 0.84 -46.2 0 0 131.36 164.81   L 131.10 164.56   A 1.12 1.11 44.1 0 0 129.53 164.58   L 119.49 174.88   Q 118.74 175.65 118.75 174.57"
       id="path21" />
    <path
       stroke="#a4b6ba"
       vector-effect="non-scaling-stroke"
       d="   M 64.7700 188.7300   A 11.16 6.60 90.0 0 0 71.3700 177.5700   A 11.16 6.60 90.0 0 0 64.7700 166.4100   A 11.16 6.60 90.0 0 0 58.1700 177.5700   A 11.16 6.60 90.0 0 0 64.7700 188.7300"
       id="path22" />
    <path
       stroke="#a4b6ba"
       vector-effect="non-scaling-stroke"
       d="   M 95.0000 188.6800   A 11.14 6.61 90.0 0 0 101.6100 177.5400   A 11.14 6.61 90.0 0 0 95.0000 166.4000   A 11.14 6.61 90.0 0 0 88.3900 177.5400   A 11.14 6.61 90.0 0 0 95.0000 188.6800"
       id="path23" />
    <path
       stroke="#a4b4b6"
       vector-effect="non-scaling-stroke"
       d="   M 31.23 167.41   L 31.21 174.83   A 0.66 0.66 0.0 0 0 31.87 175.49   L 35.35 175.50   A 4.18 4.12 -89.9 0 0 39.48 171.33   L 39.48 170.95   A 4.18 4.12 -89.9 0 0 35.37 166.76   L 31.89 166.75   A 0.66 0.66 0.0 0 0 31.23 167.41"
       id="path24" />
    <path
       stroke="#a4b4b6"
       vector-effect="non-scaling-stroke"
       d="   M 31.24 178.69   L 31.18 187.80   A 0.71 0.71 0.0 0 0 31.88 188.52   L 35.26 188.54   A 5.91 5.14 0.4 0 0 41.21 183.44   L 41.21 183.18   A 5.91 5.14 0.4 0 0 35.34 178.00   L 31.96 177.98   A 0.71 0.71 0.0 0 0 31.24 178.69"
       id="path25" />
  </g>
  <path
     fill="#516c73"
     d="   M 41.0338 125.6579   A 1.43 1.43 0.0 0 1 39.1892 126.4869   L 19.1839 118.8876   A 1.43 1.43 0.0 0 1 18.3549 117.0430   L 54.7462 21.2421   A 1.43 1.43 0.0 0 1 56.5908 20.4131   L 76.5961 28.0124   A 1.43 1.43 0.0 0 1 77.4251 29.8570   L 41.0338 125.6579   Z   M 73.7272 29.8825   A 0.35 0.35 0.0 0 0 73.5243 29.4310   L 57.8753 23.4865   A 0.35 0.35 0.0 0 0 57.4238 23.6894   L 54.8528 30.4575   A 0.35 0.35 0.0 0 0 55.0557 30.9090   L 70.7047 36.8535   A 0.35 0.35 0.0 0 0 71.1562 36.6506   L 73.7272 29.8825   Z   M 69.9899 39.7590   A 0.59 0.59 0.0 0 0 69.6478 38.9980   L 54.5037 33.2452   A 0.59 0.59 0.0 0 0 53.7426 33.5873   L 27.0101 103.9610   A 0.59 0.59 0.0 0 0 27.3522 104.7220   L 42.4963 110.4748   A 0.59 0.59 0.0 0 0 43.2574 110.1327   L 69.9899 39.7590   Z   M 41.7255 114.3170   A 0.46 0.46 0.0 0 0 41.4578 113.7241   L 26.0042 107.8847   A 0.46 0.46 0.0 0 0 25.4113 108.1524   L 22.0745 116.9830   A 0.46 0.46 0.0 0 0 22.3422 117.5759   L 37.7958 123.4153   A 0.46 0.46 0.0 0 0 38.3887 123.1476   L 41.7255 114.3170   Z"
     id="path27" />
  <path
     fill="#516c73"
     d="   M 110.3459 124.0274   A 1.57 1.57 0.0 0 1 108.7896 125.6111   L 81.9907 125.8449   A 1.57 1.57 0.0 0 1 80.4070 124.2887   L 79.5141 21.9726   A 1.57 1.57 0.0 0 1 81.0704 20.3889   L 107.8693 20.1551   A 1.57 1.57 0.0 0 1 109.4530 21.7113   L 110.3459 124.0274   Z   M 105.1914 23.2240   A 0.40 0.40 0.0 0 0 104.7893 22.8261   L 84.1896 22.9340   A 0.40 0.40 0.0 0 0 83.7917 23.3361   L 83.8286 30.3760   A 0.40 0.40 0.0 0 0 84.2307 30.7739   L 104.8304 30.6660   A 0.40 0.40 0.0 0 0 105.2283 30.2639   L 105.1914 23.2240   Z   M 105.2056 33.3499   A 0.39 0.39 0.0 0 0 104.8115 32.9640   L 84.1726 33.1802   A 0.39 0.39 0.0 0 0 83.7867 33.5742   L 84.5744 108.7901   A 0.39 0.39 0.0 0 0 84.9685 109.1760   L 105.6074 108.9598   A 0.39 0.39 0.0 0 0 105.9933 108.5658   L 105.2056 33.3499   Z   M 105.9944 112.8053   A 0.39 0.39 0.0 0 0 105.6017 112.4180   L 84.9422 112.5622   A 0.39 0.39 0.0 0 0 84.5549 112.9550   L 84.6256 123.0747   A 0.39 0.39 0.0 0 0 85.0183 123.4620   L 105.6778 123.3178   A 0.39 0.39 0.0 0 0 106.0651 122.9250   L 105.9944 112.8053   Z"
     id="path28" />
  <path
     fill="#516c73"
     d="   M 143.6269 124.1674   A 1.44 1.44 0.0 0 1 142.1995 125.6199   L 115.1406 125.8561   A 1.44 1.44 0.0 0 1 113.6881 124.4287   L 112.7931 21.8726   A 1.44 1.44 0.0 0 1 114.2205 20.4201   L 141.2794 20.1839   A 1.44 1.44 0.0 0 1 142.7319 21.6113   L 143.6269 124.1674   Z   M 138.4878 23.2826   A 0.45 0.45 0.0 0 0 138.0363 22.8341   L 117.4764 22.9059   A 0.45 0.45 0.0 0 0 117.0280 23.3575   L 117.0522 30.2974   A 0.45 0.45 0.0 0 0 117.5037 30.7459   L 138.0636 30.6741   A 0.45 0.45 0.0 0 0 138.5120 30.2225   L 138.4878 23.2826   Z   M 138.6070 33.3867   A 0.41 0.41 0.0 0 0 138.1934 32.9803   L 117.5342 33.1606   A 0.41 0.41 0.0 0 0 117.1278 33.5742   L 117.3330 57.0933   A 0.41 0.41 0.0 0 0 117.7466 57.4997   L 138.4058 57.3194   A 0.41 0.41 0.0 0 0 138.8122 56.9058   L 138.6070 33.3867   Z   M 138.8549 61.2661   A 0.49 0.49 0.0 0 0 138.3615 60.7796   L 117.9620 60.9220   A 0.49 0.49 0.0 0 0 117.4754 61.4154   L 117.9051 122.9539   A 0.49 0.49 0.0 0 0 118.3985 123.4404   L 138.7980 123.2980   A 0.49 0.49 0.0 0 0 139.2846 122.8046   L 138.8549 61.2661   Z"
     id="path29" />
  <rect
     fill="#f7f3e8"
     x="-10.70"
     y="-3.92"
     transform="translate(94.51,26.80) rotate(-0.3)"
     width="21.40"
     height="7.84"
     rx="0.40"
     id="rect29" />
  <rect
     fill="#f7f3e8"
     x="-10.73"
     y="-3.92"
     transform="translate(127.77,26.79) rotate(-0.2)"
     width="21.46"
     height="7.84"
     rx="0.45"
     id="rect30" />
  <rect
     fill="#f7f3e8"
     x="-8.72"
     y="-3.97"
     transform="translate(64.29,30.17) rotate(20.8)"
     width="17.44"
     height="7.94"
     rx="0.35"
     id="rect31" />
  <rect
     fill="#f7f3e8"
     x="-10.71"
     y="-38.00"
     transform="translate(94.89,71.07) rotate(-0.6)"
     width="21.42"
     height="76.00"
     rx="0.39"
     id="rect32" />
  <rect
     fill="#f7f3e8"
     x="-10.74"
     y="-12.17"
     transform="translate(127.97,45.24) rotate(-0.5)"
     width="21.48"
     height="24.34"
     rx="0.41"
     id="rect33" />
  <rect
     fill="#f7f3e8"
     x="-8.69"
     y="-38.23"
     transform="translate(48.50,71.86) rotate(20.8)"
     width="17.38"
     height="76.46"
     rx="0.59"
     id="rect34" />
  <rect
     fill="#f7f3e8"
     x="-10.69"
     y="-31.26"
     transform="translate(128.38,92.11) rotate(-0.4)"
     width="21.38"
     height="62.52"
     rx="0.49"
     id="rect35" />
  <rect
     fill="#f7f3e8"
     x="-8.72"
     y="-5.18"
     transform="translate(31.90,115.65) rotate(20.7)"
     width="17.44"
     height="10.36"
     rx="0.46"
     id="rect36" />
  <rect
     fill="#f7f3e8"
     x="-10.72"
     y="-5.45"
     transform="translate(95.31,117.94) rotate(-0.4)"
     width="21.44"
     height="10.90"
     rx="0.39"
     id="rect37" />
  <path
     fill="#516c73"
     d="   M 145.74 153.53   A 1.47 1.47 0.0 0 1 144.27 155.00   L 16.73 155.00   A 1.47 1.47 0.0 0 1 15.26 153.53   L 15.26 129.45   A 1.47 1.47 0.0 0 1 16.73 127.98   L 144.27 127.98   A 1.47 1.47 0.0 0 1 145.74 129.45   L 145.74 153.53   Z   M 28.0739 132.2614   A 0.48 0.48 0.0 0 0 27.5931 131.7822   L 18.6931 131.7978   A 0.48 0.48 0.0 0 0 18.2140 132.2786   L 18.2461 150.6786   A 0.48 0.48 0.0 0 0 18.7269 151.1578   L 27.6269 151.1422   A 0.48 0.48 0.0 0 0 28.1060 150.6614   L 28.0739 132.2614   Z   M 142.88 132.29   A 0.42 0.42 0.0 0 0 142.46 131.87   L 31.42 131.87   A 0.42 0.42 0.0 0 0 31.00 132.29   L 31.00 139.09   A 0.42 0.42 0.0 0 0 31.42 139.51   L 142.46 139.51   A 0.42 0.42 0.0 0 0 142.88 139.09   L 142.88 132.29   Z   M 142.89 143.80   A 0.46 0.46 0.0 0 0 142.43 143.34   L 31.43 143.34   A 0.46 0.46 0.0 0 0 30.97 143.80   L 30.97 150.64   A 0.46 0.46 0.0 0 0 31.43 151.10   L 142.43 151.10   A 0.46 0.46 0.0 0 0 142.89 150.64   L 142.89 143.80   Z"
     id="path37" />
  <rect
     fill="#f7f3e8"
     x="-4.93"
     y="-9.68"
     transform="translate(23.16,141.47) rotate(-0.1)"
     width="9.86"
     height="19.36"
     rx="0.48"
     id="rect38" />
  <rect
     fill="#f7f3e8"
     x="31.00"
     y="131.87"
     width="111.88"
     height="7.64"
     rx="0.42"
     id="rect39" />
  <rect
     fill="#f7f3e8"
     x="30.97"
     y="143.34"
     width="111.92"
     height="7.76"
     rx="0.46"
     id="rect40" />
  <path
     fill="#50717a"
     d="   M 145.79 196.07   A 0.44 0.44 0.0 0 1 145.35 196.51   L 15.71 196.51   A 0.44 0.44 0.0 0 1 15.27 196.07   L 15.27 159.15   A 0.44 0.44 0.0 0 1 15.71 158.71   L 145.35 158.71   A 0.44 0.44 0.0 0 1 145.79 159.15   L 145.79 196.07   Z   M 64.7700 191.1300   A 13.59 9.09 90.0 0 0 73.8600 177.5400   A 13.59 9.09 90.0 0 0 64.7700 163.9500   A 13.59 9.09 90.0 0 0 55.6800 177.5400   A 13.59 9.09 90.0 0 0 64.7700 191.1300   Z   M 94.9663 191.1300   A 13.59 9.09 90.1 0 0 104.0800 177.5559   A 13.59 9.09 90.1 0 0 95.0137 163.9500   A 13.59 9.09 90.1 0 0 85.9000 177.5241   A 13.59 9.09 90.1 0 0 94.9663 191.1300   Z   M 40.19 176.11   Q 43.73 170.60 39.96 166.34   C 37.62 163.70 33.09 164.05 29.87 164.35   Q 28.76 164.45 28.77 165.56   L 28.81 189.76   A 1.09 1.08 0.0 0 0 29.90 190.84   C 32.87 190.85 36.72 191.15 39.28 190.03   C 44.55 187.73 45.13 180.60 40.36 177.01   Q 39.86 176.64 40.19 176.11   Z   M 118.75 174.57   L 118.77 165.25   A 0.94 0.94 0.0 0 0 117.74 164.30   L 117.40 164.32   Q 116.27 164.43 116.27 165.56   L 116.28 189.43   Q 116.28 190.62 117.46 190.79   L 117.75 190.83   A 0.83 0.82 -85.5 0 0 118.69 190.02   L 118.84 179.07   A 1.87 1.87 0.0 0 1 122.30 178.10   L 130.32 190.84   A 0.66 0.66 0.0 0 0 131.42 190.86   L 131.69 190.47   Q 132.37 189.48 131.73 188.45   L 123.52 175.33   A 1.03 1.01 -39.9 0 1 123.64 174.09   L 131.38 166.00   A 0.85 0.84 -46.2 0 0 131.36 164.81   L 131.10 164.56   A 1.12 1.11 44.1 0 0 129.53 164.58   L 119.49 174.88   Q 118.74 175.65 118.75 174.57   Z"
     id="path40" />
  <path
     fill="#f7fbf9"
     d="   M 64.7700 191.1300   A 13.59 9.09 90.0 0 1 55.6800 177.5400   A 13.59 9.09 90.0 0 1 64.7700 163.9500   A 13.59 9.09 90.0 0 1 73.8600 177.5400   A 13.59 9.09 90.0 0 1 64.7700 191.1300   Z   M 64.7700 188.7300   A 11.16 6.60 90.0 0 0 71.3700 177.5700   A 11.16 6.60 90.0 0 0 64.7700 166.4100   A 11.16 6.60 90.0 0 0 58.1700 177.5700   A 11.16 6.60 90.0 0 0 64.7700 188.7300   Z"
     id="path41" />
  <path
     fill="#f7fbf9"
     d="   M 94.9663 191.1300   A 13.59 9.09 90.1 0 1 85.9000 177.5241   A 13.59 9.09 90.1 0 1 95.0137 163.9500   A 13.59 9.09 90.1 0 1 104.0800 177.5559   A 13.59 9.09 90.1 0 1 94.9663 191.1300   Z   M 95.0000 188.6800   A 11.14 6.61 90.0 0 0 101.6100 177.5400   A 11.14 6.61 90.0 0 0 95.0000 166.4000   A 11.14 6.61 90.0 0 0 88.3900 177.5400   A 11.14 6.61 90.0 0 0 95.0000 188.6800   Z"
     id="path42" />
  <path
     fill="#f7fbf9"
     d="   M 40.36 177.01   C 45.13 180.60 44.55 187.73 39.28 190.03   C 36.72 191.15 32.87 190.85 29.90 190.84   A 1.09 1.08 0.0 0 1 28.81 189.76   L 28.77 165.56   Q 28.76 164.45 29.87 164.35   C 33.09 164.05 37.62 163.70 39.96 166.34   Q 43.73 170.60 40.19 176.11   Q 39.86 176.64 40.36 177.01   Z   M 31.23 167.41   L 31.21 174.83   A 0.66 0.66 0.0 0 0 31.87 175.49   L 35.35 175.50   A 4.18 4.12 -89.9 0 0 39.48 171.33   L 39.48 170.95   A 4.18 4.12 -89.9 0 0 35.37 166.76   L 31.89 166.75   A 0.66 0.66 0.0 0 0 31.23 167.41   Z   M 31.24 178.69   L 31.18 187.80   A 0.71 0.71 0.0 0 0 31.88 188.52   L 35.26 188.54   A 5.91 5.14 0.4 0 0 41.21 183.44   L 41.21 183.18   A 5.91 5.14 0.4 0 0 35.34 178.00   L 31.96 177.98   A 0.71 0.71 0.0 0 0 31.24 178.69   Z"
     id="path43" />
  <path
     fill="#f7fbf9"
     d="   M 119.49 174.88   L 129.53 164.58   A 1.12 1.11 44.1 0 1 131.10 164.56   L 131.36 164.81   A 0.85 0.84 -46.2 0 1 131.38 166.00   L 123.64 174.09   A 1.03 1.01 -39.9 0 0 123.52 175.33   L 131.73 188.45   Q 132.37 189.48 131.69 190.47   L 131.42 190.86   A 0.66 0.66 0.0 0 1 130.32 190.84   L 122.30 178.10   A 1.87 1.87 0.0 0 0 118.84 179.07   L 118.69 190.02   A 0.83 0.82 -85.5 0 1 117.75 190.83   L 117.46 190.79   Q 116.28 190.62 116.28 189.43   L 116.27 165.56   Q 116.27 164.43 117.40 164.32   L 117.74 164.30   A 0.94 0.94 0.0 0 1 118.77 165.25   L 118.75 174.57   Q 118.74 175.65 119.49 174.88   Z"
     id="path44" />
  <ellipse
     fill="#50717a"
     cx="0.00"
     cy="0.00"
     transform="translate(64.77,177.57) rotate(90.0)"
     rx="11.16"
     ry="6.60"
     id="ellipse44" />
  <ellipse
     fill="#50717a"
     cx="0.00"
     cy="0.00"
     transform="translate(95.00,177.54) rotate(90.0)"
     rx="11.14"
     ry="6.61"
     id="ellipse45" />
  <path
     fill="#516c73"
     d="   M 31.23 167.41   A 0.66 0.66 0.0 0 1 31.89 166.75   L 35.37 166.76   A 4.18 4.12 -89.9 0 1 39.48 170.95   L 39.48 171.33   A 4.18 4.12 -89.9 0 1 35.35 175.50   L 31.87 175.49   A 0.66 0.66 0.0 0 1 31.21 174.83   L 31.23 167.41   Z"
     id="path45" />
  <path
     fill="#516c73"
     d="   M 31.24 178.69   A 0.71 0.71 0.0 0 1 31.96 177.98   L 35.34 178.00   A 5.91 5.14 0.4 0 1 41.21 183.18   L 41.21 183.44   A 5.91 5.14 0.4 0 1 35.26 188.54   L 31.88 188.52   A 0.71 0.71 0.0 0 1 31.18 187.80   L 31.24 178.69   Z"
     id="path46" />
</svg>
