<?xml version="1.0" encoding="UTF-8" standalone="no"?>
<svg
   version="1.1"
   viewBox="0.00 0.00 232.00 147.00"
   width="232.00"
   height="147.00"
   id="svg74"
   sodipodi:docname="cart.svg"
   inkscape:version="1.3 (0e150ed6c4, 2023-07-21)"
   xmlns:inkscape="http://www.inkscape.org/namespaces/inkscape"
   xmlns:sodipodi="http://sodipodi.sourceforge.net/DTD/sodipodi-0.dtd"
   xmlns="http://www.w3.org/2000/svg"
   xmlns:svg="http://www.w3.org/2000/svg">
  <defs
     id="defs74" />
  <sodipodi:namedview
     id="namedview74"
     pagecolor="#ffffff"
     bordercolor="#000000"
     borderopacity="0.25"
     inkscape:showpageshadow="2"
     inkscape:pageopacity="0.0"
     inkscape:pagecheckerboard="0"
     inkscape:deskcolor="#d1d1d1"
     inkscape:zoom="3.7375644"
     inkscape:cx="89.095454"
     inkscape:cy="60.333408"
     inkscape:window-width="1920"
     inkscape:window-height="991"
     inkscape:window-x="-9"
     inkscape:window-y="-9"
     inkscape:window-maximized="1"
     inkscape:current-layer="svg74" />
  <g
     stroke-width="2.00"
     fill="none"
     stroke-linecap="butt"
     id="g41">
    <path
       stroke="#b49a88"
       vector-effect="non-scaling-stroke"
       d="   M 166.08 64.75   L 166.18 25.87   Q 166.19 23.04 163.37 23.04   L 70.30 23.03   A 2.29 2.29 0.0 0 0 68.01 25.32   L 68.04 86.68   Q 68.04 87.15 67.59 87.01   L 66.36 86.65   A 0.93 0.92 28.9 0 0 65.40 86.92   L 60.45 92.40   Q 60.06 92.84 59.62 92.44   L 52.83 86.25   A 1.50 1.50 0.0 0 0 50.69 86.37   L 47.92 89.51   Q 47.55 89.93 47.09 89.61   L 30.40 78.12   A 0.88 0.88 0.0 0 0 29.25 78.25   L 23.03 85.03   Q 22.60 85.51 23.01 86.00   L 35.89 101.65   Q 36.25 102.08 35.93 102.54   Q 34.80 104.18 33.36 105.64   Q 31.99 107.03 33.85 108.43   Q 35.55 109.71 40.04 114.18   Q 40.34 114.48 40.05 114.80   L 34.06 121.37   A 1.09 1.08 -47.8 0 0 34.13 122.91   L 48.70 136.12   Q 49.42 136.77 48.45 136.76   L 38.45 136.67   A 0.63 0.63 0.0 0 0 37.81 137.30   L 37.81 142.03   A 0.46 0.46 0.0 0 0 38.28 142.49   L 204.96 142.49   A 0.27 0.27 0.0 0 0 205.23 142.21   L 205.22 136.97   Q 205.22 136.72 204.97 136.72   L 170.04 136.74   Q 169.07 136.74 169.75 136.05   L 201.60 104.25   Q 202.47 103.38 202.80 102.19   L 206.46 88.82   A 0.86 0.86 0.0 0 0 205.51 87.74   C 199.13 88.62 191.34 90.06 186.72 95.12   Q 177.16 105.61 166.71 115.79   Q 166.09 116.39 166.04 115.53   C 165.86 112.37 166.03 109.46 166.92 106.23   Q 170.68 92.70 174.79 79.26   Q 175.93 75.52 172.63 72.68   Q 172.25 72.35 172.40 71.87   C 173.53 68.35 175.71 62.67 171.23 61.84   C 168.86 61.40 167.36 62.77 166.51 64.84   Q 166.08 65.88 166.08 64.75"
       id="path1" />
    <path
       stroke="#b49a88"
       vector-effect="non-scaling-stroke"
       d="   M 79.10 40.55   Q 83.08 39.39 85.03 42.76   Q 85.28 43.19 85.77 43.19   L 88.78 43.24   Q 89.32 43.25 89.32 42.72   L 89.30 28.54   A 0.52 0.52 0.0 0 0 88.78 28.02   L 73.62 28.00   Q 72.98 28.00 72.98 28.64   L 73.05 42.66   A 0.56 0.56 0.0 0 0 73.50 43.21   Q 76.86 43.87 78.44 41.07   A 1.16 1.15 -82.9 0 1 79.10 40.55"
       id="path2" />
    <path
       stroke="#b49a88"
       vector-effect="non-scaling-stroke"
       d="   M 161.06 28.43   A 0.41 0.41 0.0 0 0 160.65 28.02   L 93.15 28.02   A 0.41 0.41 0.0 0 0 92.74 28.43   L 92.74 42.85   A 0.41 0.41 0.0 0 0 93.15 43.26   L 160.65 43.26   A 0.41 0.41 0.0 0 0 161.06 42.85   L 161.06 28.43"
       id="path3" />
    <path
       stroke="#b49a88"
       vector-effect="non-scaling-stroke"
       d="   M 85.15 45.46   C 83.86 49.76 78.66 49.81 77.05 45.61   A 0.91 0.91 0.0 0 0 76.21 45.02   L 73.78 44.99   Q 73.04 44.98 73.03 45.72   L 73.00 52.49   Q 72.99 52.98 73.49 52.98   L 88.44 52.98   Q 89.36 52.98 89.36 52.06   L 89.30 45.89   Q 89.30 44.98 88.39 44.99   L 85.78 45.00   Q 85.29 45.00 85.15 45.46"
       id="path4" />
    <path
       stroke="#b49a88"
       vector-effect="non-scaling-stroke"
       d="   M 161.09 45.43   A 0.43 0.43 0.0 0 0 160.66 45.00   L 93.16 45.00   A 0.43 0.43 0.0 0 0 92.73 45.43   L 92.73 52.57   A 0.43 0.43 0.0 0 0 93.16 53.00   L 160.66 53.00   A 0.43 0.43 0.0 0 0 161.09 52.57   L 161.09 45.43"
       id="path5" />
    <path
       stroke="#b49a88"
       vector-effect="non-scaling-stroke"
       d="   M 161.09 55.08   A 0.46 0.46 0.0 0 0 160.63 54.62   L 93.19 54.62   A 0.46 0.46 0.0 0 0 92.73 55.08   L 92.73 62.20   A 0.46 0.46 0.0 0 0 93.19 62.66   L 160.63 62.66   A 0.46 0.46 0.0 0 0 161.09 62.20   L 161.09 55.08"
       id="path6" />
    <path
       stroke="#b49a88"
       vector-effect="non-scaling-stroke"
       d="   M 89.3337 55.0558   A 0.39 0.39 0.0 0 0 88.9431 54.6664   L 73.4031 54.6936   A 0.39 0.39 0.0 0 0 73.0138 55.0842   L 73.0263 62.2442   A 0.39 0.39 0.0 0 0 73.4169 62.6336   L 88.9569 62.6064   A 0.39 0.39 0.0 0 0 89.3462 62.2158   L 89.3337 55.0558"
       id="path7" />
    <path
       stroke="#b49a88"
       vector-effect="non-scaling-stroke"
       d="   M 167.56 70.47   L 170.04 71.20   A 0.74 0.74 0.0 0 0 170.96 70.70   L 172.15 66.66   A 2.65 1.92 -73.5 0 0 171.06 63.58   L 170.85 63.52   A 2.65 1.92 -73.5 0 0 168.26 65.51   L 167.06 69.55   A 0.74 0.74 0.0 0 0 167.56 70.47"
       id="path8" />
    <path
       stroke="#b49a88"
       vector-effect="non-scaling-stroke"
       d="   M 161.04 64.56   A 0.32 0.32 0.0 0 0 160.72 64.24   L 93.06 64.24   A 0.32 0.32 0.0 0 0 92.74 64.56   L 92.74 70.88   A 0.32 0.32 0.0 0 0 93.06 71.20   L 160.72 71.20   A 0.32 0.32 0.0 0 0 161.04 70.88   L 161.04 64.56"
       id="path9" />
    <path
       stroke="#b49a88"
       vector-effect="non-scaling-stroke"
       d="   M 89.34 64.62   A 0.37 0.37 0.0 0 0 88.97 64.25   L 73.39 64.25   A 0.37 0.37 0.0 0 0 73.02 64.62   L 73.02 70.76   A 0.37 0.37 0.0 0 0 73.39 71.13   L 88.97 71.13   A 0.37 0.37 0.0 0 0 89.34 70.76   L 89.34 64.62"
       id="path10" />
    <path
       stroke="#b49a88"
       vector-effect="non-scaling-stroke"
       d="   M 150.25 79.52   C 151.98 75.62 155.09 74.14 159.25 74.07   Q 159.57 74.07 159.56 73.76   L 159.56 73.49   Q 159.56 72.94 159.01 72.94   L 93.03 72.94   A 0.28 0.28 0.0 0 0 92.75 73.22   L 92.74 79.74   A 0.25 0.25 0.0 0 0 92.99 79.99   L 149.50 80.00   A 0.83 0.82 12.3 0 0 150.25 79.52"
       id="path11" />
    <path
       stroke="#b49a88"
       vector-effect="non-scaling-stroke"
       d="   M 79.82 78.59   Q 81.84 77.60 83.91 79.63   A 1.16 1.13 -22.3 0 0 84.71 79.95   L 88.21 79.90   Q 89.30 79.89 89.31 78.79   L 89.35 74.17   Q 89.36 72.98 88.17 72.98   L 73.51 72.99   Q 73.01 72.99 73.01 73.49   L 73.00 79.28   Q 73.00 79.98 73.70 80.04   Q 76.39 80.26 79.82 78.59"
       id="path12" />
    <path
       stroke="#b49a88"
       vector-effect="non-scaling-stroke"
       d="   M 148.59 120.15   L 159.30 123.29   A 0.24 0.24 0.0 0 0 159.60 123.12   L 171.88 81.13   A 5.79 5.77 -73.7 0 0 167.96 73.95   L 167.87 73.93   A 5.79 5.77 -73.7 0 0 160.70 77.86   L 148.43 119.86   A 0.24 0.24 0.0 0 0 148.59 120.15"
       id="path13" />
    <path
       stroke="#b49a88"
       vector-effect="non-scaling-stroke"
       d="   M 154.94 77.64   A 0.33 0.33 0.0 0 0 154.83 77.70   L 152.95 79.41   A 0.33 0.33 0.0 0 0 153.18 79.99   L 157.16 79.92   A 0.33 0.33 0.0 0 0 157.47 79.67   L 158.13 77.02   A 0.33 0.33 0.0 0 0 157.70 76.63   L 154.94 77.64"
       id="path14" />
    <path
       stroke="#b49a88"
       vector-effect="non-scaling-stroke"
       d="   M 30.47 80.70   A 0.33 0.33 0.0 0 0 30.03 80.75   L 25.67 85.59   A 0.33 0.33 0.0 0 0 25.67 86.02   L 37.55 100.11   A 0.33 0.33 0.0 0 0 38.04 100.12   L 45.72 91.80   A 0.33 0.33 0.0 0 0 45.67 91.30   L 30.47 80.70"
       id="path15" />
    <path
       stroke="#b49a88"
       vector-effect="non-scaling-stroke"
       d="   M 146.65 90.04   A 0.37 0.37 0.0 0 0 147.01 89.77   L 149.21 82.04   A 0.37 0.37 0.0 0 0 148.86 81.57   L 93.11 81.70   A 0.37 0.37 0.0 0 0 92.74 82.07   L 92.76 89.63   A 0.37 0.37 0.0 0 0 93.13 90.00   L 146.65 90.04"
       id="path16" />
    <path
       stroke="#b49a88"
       vector-effect="non-scaling-stroke"
       d="   M 85.20 82.53   C 85.15 88.54 76.87 87.85 76.89 82.63   A 0.91 0.90 0.3 0 0 75.99 81.73   L 73.79 81.70   A 0.78 0.78 0.0 0 0 73.01 82.47   L 72.99 89.24   Q 72.99 90.00 73.74 90.00   L 88.79 90.00   Q 89.32 90.00 89.32 89.46   L 89.31 82.51   Q 89.31 81.71 88.51 81.71   L 86.03 81.71   Q 85.21 81.71 85.20 82.53"
       id="path17" />
    <path
       stroke="#b49a88"
       vector-effect="non-scaling-stroke"
       d="   M 156.88 82.15   A 0.30 0.30 0.0 0 0 156.60 81.76   L 151.89 81.67   A 0.30 0.30 0.0 0 0 151.59 81.90   L 149.58 89.63   A 0.30 0.30 0.0 0 0 149.87 90.01   L 154.41 89.99   A 0.30 0.30 0.0 0 0 154.70 89.77   L 156.88 82.15"
       id="path18" />
    <path
       stroke="#b49a88"
       vector-effect="non-scaling-stroke"
       d="   M 57.4224 94.8955   A 0.33 0.33 0.0 0 0 57.4004 94.4293   L 52.1934 89.6913   A 0.33 0.33 0.0 0 0 51.7273 89.7133   L 36.5576 106.3845   A 0.33 0.33 0.0 0 0 36.5796 106.8507   L 41.7866 111.5887   A 0.33 0.33 0.0 0 0 42.2527 111.5667   L 57.4224 94.8955"
       id="path19" />
    <path
       stroke="#b49a88"
       vector-effect="non-scaling-stroke"
       d="   M 49.77 123.15   L 69.27 101.71   A 0.61 0.60 -47.7 0 1 70.12 101.66   L 103.08 131.67   A 0.64 0.64 0.0 0 1 103.11 132.60   L 99.65 136.18   Q 99.22 136.64 99.85 136.66   Q 109.16 136.94 111.75 136.70   Q 113.63 136.53 114.68 134.82   Q 114.95 134.38 114.57 134.02   L 66.85 90.26   A 0.64 0.64 0.0 0 0 65.94 90.30   L 38.04 121.08   Q 36.69 122.56 38.22 123.84   L 53.08 136.30   Q 53.55 136.69 54.16 136.70   L 62.80 136.76   A 0.39 0.39 0.0 0 0 63.07 136.08   L 49.82 124.09   Q 49.32 123.64 49.77 123.15"
       id="path20" />
    <path
       stroke="#b49a88"
       vector-effect="non-scaling-stroke"
       d="   M 73.34 91.77   A 0.33 0.33 0.0 0 0 73.11 92.34   L 80.85 99.42   A 0.33 0.33 0.0 0 0 81.07 99.51   L 89.06 99.49   A 0.33 0.33 0.0 0 0 89.38 99.16   L 89.28 92.07   A 0.33 0.33 0.0 0 0 88.94 91.74   L 73.34 91.77"
       id="path21" />
    <path
       stroke="#b49a88"
       vector-effect="non-scaling-stroke"
       d="   M 143.99 99.52   A 0.30 0.30 0.0 0 0 144.28 99.30   L 146.36 92.10   A 0.30 0.30 0.0 0 0 146.07 91.72   L 93.06 91.74   A 0.30 0.30 0.0 0 0 92.76 92.04   L 92.74 99.20   A 0.30 0.30 0.0 0 0 93.04 99.50   L 143.99 99.52"
       id="path22" />
    <path
       stroke="#b49a88"
       vector-effect="non-scaling-stroke"
       d="   M 146.81 99.11   A 0.31 0.31 0.0 0 0 147.11 99.51   L 151.68 99.49   A 0.31 0.31 0.0 0 0 151.97 99.27   L 154.04 92.13   A 0.31 0.31 0.0 0 0 153.75 91.73   L 149.16 91.75   A 0.31 0.31 0.0 0 0 148.87 91.97   L 146.81 99.11"
       id="path23" />
    <path
       stroke="#b49a88"
       vector-effect="non-scaling-stroke"
       d="   M 197.51 97.79   L 197.80 100.34   Q 197.90 101.27 198.84 101.25   L 199.41 101.24   A 1.45 1.45 0.0 0 0 200.79 100.14   C 201.43 97.60 203.84 93.51 200.23 91.72   Q 199.75 91.48 199.25 91.63   L 193.60 93.28   A 1.81 1.81 0.0 0 0 194.46 96.79   Q 195.91 96.50 196.98 97.03   Q 197.45 97.27 197.51 97.79"
       id="path24" />
    <path
       stroke="#b49a88"
       vector-effect="non-scaling-stroke"
       d="   M 162.10 124.24   A 0.33 0.33 0.0 0 0 162.04 124.34   L 160.87 127.10   A 0.33 0.33 0.0 0 0 161.41 127.46   L 191.58 97.24   A 0.33 0.33 0.0 0 0 191.67 97.02   L 191.75 94.57   A 0.33 0.33 0.0 0 0 191.19 94.33   L 162.10 124.24"
       id="path25" />
    <path
       stroke="#b49a88"
       vector-effect="non-scaling-stroke"
       d="   M 161.13 129.52   C 159.65 131.00 159.01 134.10 158.55 136.01   Q 158.41 136.58 158.98 136.70   C 160.51 137.02 161.58 136.81 162.76 135.63   Q 179.53 118.86 196.31 102.08   A 1.02 0.99 63.9 0 0 196.59 101.23   L 196.25 98.77   Q 196.19 98.30 195.74 98.16   Q 193.25 97.39 192.20 98.44   Q 176.67 113.99 161.13 129.52"
       id="path26" />
    <path
       stroke="#b49a88"
       vector-effect="non-scaling-stroke"
       d="   M 83.51 101.07   A 0.33 0.33 0.0 0 0 83.28 101.64   L 88.76 106.56   A 0.33 0.33 0.0 0 0 89.31 106.32   L 89.38 101.57   A 0.33 0.33 0.0 0 0 89.06 101.24   L 83.51 101.07"
       id="path27" />
    <path
       stroke="#b49a88"
       vector-effect="non-scaling-stroke"
       d="   M 146.93 105.47   C 144.76 109.46 138.76 105.64 141.86 102.36   Q 142.20 101.99 142.50 101.57   Q 142.84 101.10 142.26 101.10   L 93.06 101.13   Q 92.75 101.13 92.75 101.44   L 92.74 108.50   A 0.27 0.26 -90.0 0 0 93.00 108.77   L 147.94 108.78   Q 149.27 108.78 149.63 107.50   L 151.08 102.39   Q 151.37 101.35 150.29 101.28   L 146.45 101.03   Q 145.62 100.98 146.14 101.63   Q 147.86 103.76 146.93 105.47"
       id="path28" />
    <path
       stroke="#b49a88"
       vector-effect="non-scaling-stroke"
       d="   M 198.6237 102.0928   A 0.27 0.27 0.0 0 0 198.2419 102.0921   L 163.9440 136.2704   A 0.27 0.27 0.0 0 0 163.9434 136.6522   L 164.5363 137.2472   A 0.27 0.27 0.0 0 0 164.9181 137.2479   L 199.2160 103.0696   A 0.27 0.27 0.0 0 0 199.2166 102.6878   L 198.6237 102.0928"
       id="path29" />
    <path
       stroke="#b49a88"
       vector-effect="non-scaling-stroke"
       d="   M 100.74 131.77   L 69.99 103.76   A 0.35 0.34 42.1 0 0 69.50 103.78   L 52.05 123.03   Q 51.64 123.48 52.09 123.89   L 65.79 136.24   A 1.90 1.89 65.7 0 0 67.05 136.72   Q 80.47 136.75 94.19 136.75   C 97.50 136.75 99.15 135.06 100.83 132.57   Q 101.13 132.12 100.74 131.77"
       id="path30" />
    <path
       stroke="#b49a88"
       vector-effect="non-scaling-stroke"
       d="   M 93.78 110.43   A 0.31 0.31 0.0 0 0 93.58 110.97   L 101.27 117.90   A 0.31 0.31 0.0 0 0 101.48 117.98   L 146.36 118.01   A 0.31 0.31 0.0 0 0 146.66 117.79   L 148.72 110.69   A 0.31 0.31 0.0 0 0 148.43 110.29   L 93.78 110.43"
       id="path31" />
    <path
       stroke="#b49a88"
       vector-effect="non-scaling-stroke"
       d="   M 143.63 127.70   A 0.32 0.32 0.0 0 0 143.94 127.47   L 146.14 119.92   A 0.32 0.32 0.0 0 0 145.83 119.51   L 103.80 119.54   A 0.32 0.32 0.0 0 0 103.59 120.10   L 111.89 127.57   A 0.32 0.32 0.0 0 0 112.10 127.65   L 143.63 127.70"
       id="path32" />
    <path
       stroke="#9f7d67"
       vector-effect="non-scaling-stroke"
       d="   M 145.57 136.23   Q 145.74 136.14 146.01 136.15   A 0.62 0.61 22.4 0 0 146.48 135.96   L 157.44 125.17   Q 157.99 124.62 157.25 124.41   L 148.31 121.81"
       id="path33" />
    <path
       stroke="#b49a88"
       vector-effect="non-scaling-stroke"
       d="   M 148.31 121.81   Q 145.01 128.43 143.59 136.08   A 0.58 0.58 0.0 0 0 144.13 136.76   Q 144.89 136.80 145.57 136.23"
       id="path34" />
    <path
       stroke="#e2d6c7"
       vector-effect="non-scaling-stroke"
       d="   M 148.31 121.81   Q 146.87 128.19 145.20 134.25   Q 144.98 135.08 145.57 136.23"
       id="path35" />
    <path
       stroke="#9f7d67"
       vector-effect="non-scaling-stroke"
       d="   M 152.54 136.09   C 154.67 133.85 158.30 131.59 158.10 128.55   Q 158.07 128.08 157.74 128.41   L 150.14 135.98   A 0.38 0.37 -68.7 0 0 150.42 136.62   L 151.46 136.58   A 1.60 1.59 20.3 0 0 152.54 136.09"
       id="path36" />
    <path
       stroke="#b49a88"
       vector-effect="non-scaling-stroke"
       d="   M 118.63 133.67   A 0.31 0.31 0.0 0 1 118.67 134.09   L 116.98 136.24   A 0.31 0.31 0.0 0 0 117.22 136.74   L 141.07 136.73   A 0.31 0.31 0.0 0 0 141.36 136.50   L 143.32 129.62   A 0.31 0.31 0.0 0 0 143.02 129.23   L 114.47 129.24   A 0.31 0.31 0.0 0 0 114.26 129.78   L 118.63 133.67"
       id="path37" />
    <path
       stroke="#9f7d67"
       vector-effect="non-scaling-stroke"
       d="   M 154.7854 136.8763   A 1.44 0.61 127.9 0 0 156.1513 136.1147   A 1.44 0.61 127.9 0 0 156.5546 134.6037   A 1.44 0.61 127.9 0 0 155.1887 135.3653   A 1.44 0.61 127.9 0 0 154.7854 136.8763"
       id="path38" />
    <path
       stroke="#b49a88"
       vector-effect="non-scaling-stroke"
       d="   M 43.9836 92.8380   A 0.29 0.29 0.0 0 0 43.9294 92.4315   L 30.6150 82.2519   A 0.29 0.29 0.0 0 0 30.2085 82.3061   L 30.1964 82.3220   A 0.29 0.29 0.0 0 0 30.2506 82.7285   L 43.5650 92.9081   A 0.29 0.29 0.0 0 0 43.9715 92.8539   L 43.9836 92.8380"
       id="path39" />
    <path
       stroke="#b49a88"
       vector-effect="non-scaling-stroke"
       d="   M 41.3642 95.6265   A 0.30 0.30 0.0 0 0 41.3465 95.2027   L 28.6267 83.5062   A 0.30 0.30 0.0 0 0 28.2028 83.5240   L 28.1758 83.5535   A 0.30 0.30 0.0 0 0 28.1935 83.9773   L 40.9133 95.6738   A 0.30 0.30 0.0 0 0 41.3372 95.6560   L 41.3642 95.6265"
       id="path40" />
    <path
       stroke="#b49a88"
       vector-effect="non-scaling-stroke"
       d="   M 27.6411 85.3931   A 0.32 0.32 0.0 0 0 27.1887 85.3805   L 27.1596 85.4079   A 0.32 0.32 0.0 0 0 27.1470 85.8603   L 38.5389 97.9069   A 0.32 0.32 0.0 0 0 38.9913 97.9195   L 39.0204 97.8921   A 0.32 0.32 0.0 0 0 39.0330 97.4397   L 27.6411 85.3931"
       id="path41" />
  </g>
  <path
     fill="#704027"
     d="   M 166.51 64.84   C 167.36 62.77 168.86 61.40 171.23 61.84   C 175.71 62.67 173.53 68.35 172.40 71.87   Q 172.25 72.35 172.63 72.68   Q 175.93 75.52 174.79 79.26   Q 170.68 92.70 166.92 106.23   C 166.03 109.46 165.86 112.37 166.04 115.53   Q 166.09 116.39 166.71 115.79   Q 177.16 105.61 186.72 95.12   C 191.34 90.06 199.13 88.62 205.51 87.74   A 0.86 0.86 0.0 0 1 206.46 88.82   L 202.80 102.19   Q 202.47 103.38 201.60 104.25   L 169.75 136.05   Q 169.07 136.74 170.04 136.74   L 204.97 136.72   Q 205.22 136.72 205.22 136.97   L 205.23 142.21   A 0.27 0.27 0.0 0 1 204.96 142.49   L 38.28 142.49   A 0.46 0.46 0.0 0 1 37.81 142.03   L 37.81 137.30   A 0.63 0.63 0.0 0 1 38.45 136.67   L 48.45 136.76   Q 49.42 136.77 48.70 136.12   L 34.13 122.91   A 1.09 1.08 -47.8 0 1 34.06 121.37   L 40.05 114.80   Q 40.34 114.48 40.04 114.18   Q 35.55 109.71 33.85 108.43   Q 31.99 107.03 33.36 105.64   Q 34.80 104.18 35.93 102.54   Q 36.25 102.08 35.89 101.65   L 23.01 86.00   Q 22.60 85.51 23.03 85.03   L 29.25 78.25   A 0.88 0.88 0.0 0 1 30.40 78.12   L 47.09 89.61   Q 47.55 89.93 47.92 89.51   L 50.69 86.37   A 1.50 1.50 0.0 0 1 52.83 86.25   L 59.62 92.44   Q 60.06 92.84 60.45 92.40   L 65.40 86.92   A 0.93 0.92 28.9 0 1 66.36 86.65   L 67.59 87.01   Q 68.04 87.15 68.04 86.68   L 68.01 25.32   A 2.29 2.29 0.0 0 1 70.30 23.03   L 163.37 23.04   Q 166.19 23.04 166.18 25.87   L 166.08 64.75   Q 166.08 65.88 166.51 64.84   Z   M 79.10 40.55   Q 83.08 39.39 85.03 42.76   Q 85.28 43.19 85.77 43.19   L 88.78 43.24   Q 89.32 43.25 89.32 42.72   L 89.30 28.54   A 0.52 0.52 0.0 0 0 88.78 28.02   L 73.62 28.00   Q 72.98 28.00 72.98 28.64   L 73.05 42.66   A 0.56 0.56 0.0 0 0 73.50 43.21   Q 76.86 43.87 78.44 41.07   A 1.16 1.15 -82.9 0 1 79.10 40.55   Z   M 161.06 28.43   A 0.41 0.41 0.0 0 0 160.65 28.02   L 93.15 28.02   A 0.41 0.41 0.0 0 0 92.74 28.43   L 92.74 42.85   A 0.41 0.41 0.0 0 0 93.15 43.26   L 160.65 43.26   A 0.41 0.41 0.0 0 0 161.06 42.85   L 161.06 28.43   Z   M 85.15 45.46   C 83.86 49.76 78.66 49.81 77.05 45.61   A 0.91 0.91 0.0 0 0 76.21 45.02   L 73.78 44.99   Q 73.04 44.98 73.03 45.72   L 73.00 52.49   Q 72.99 52.98 73.49 52.98   L 88.44 52.98   Q 89.36 52.98 89.36 52.06   L 89.30 45.89   Q 89.30 44.98 88.39 44.99   L 85.78 45.00   Q 85.29 45.00 85.15 45.46   Z   M 161.09 45.43   A 0.43 0.43 0.0 0 0 160.66 45.00   L 93.16 45.00   A 0.43 0.43 0.0 0 0 92.73 45.43   L 92.73 52.57   A 0.43 0.43 0.0 0 0 93.16 53.00   L 160.66 53.00   A 0.43 0.43 0.0 0 0 161.09 52.57   L 161.09 45.43   Z   M 161.09 55.08   A 0.46 0.46 0.0 0 0 160.63 54.62   L 93.19 54.62   A 0.46 0.46 0.0 0 0 92.73 55.08   L 92.73 62.20   A 0.46 0.46 0.0 0 0 93.19 62.66   L 160.63 62.66   A 0.46 0.46 0.0 0 0 161.09 62.20   L 161.09 55.08   Z   M 89.3337 55.0558   A 0.39 0.39 0.0 0 0 88.9431 54.6664   L 73.4031 54.6936   A 0.39 0.39 0.0 0 0 73.0138 55.0842   L 73.0263 62.2442   A 0.39 0.39 0.0 0 0 73.4169 62.6336   L 88.9569 62.6064   A 0.39 0.39 0.0 0 0 89.3462 62.2158   L 89.3337 55.0558   Z   M 167.56 70.47   L 170.04 71.20   A 0.74 0.74 0.0 0 0 170.96 70.70   L 172.15 66.66   A 2.65 1.92 -73.5 0 0 171.06 63.58   L 170.85 63.52   A 2.65 1.92 -73.5 0 0 168.26 65.51   L 167.06 69.55   A 0.74 0.74 0.0 0 0 167.56 70.47   Z   M 161.04 64.56   A 0.32 0.32 0.0 0 0 160.72 64.24   L 93.06 64.24   A 0.32 0.32 0.0 0 0 92.74 64.56   L 92.74 70.88   A 0.32 0.32 0.0 0 0 93.06 71.20   L 160.72 71.20   A 0.32 0.32 0.0 0 0 161.04 70.88   L 161.04 64.56   Z   M 89.34 64.62   A 0.37 0.37 0.0 0 0 88.97 64.25   L 73.39 64.25   A 0.37 0.37 0.0 0 0 73.02 64.62   L 73.02 70.76   A 0.37 0.37 0.0 0 0 73.39 71.13   L 88.97 71.13   A 0.37 0.37 0.0 0 0 89.34 70.76   L 89.34 64.62   Z   M 150.25 79.52   C 151.98 75.62 155.09 74.14 159.25 74.07   Q 159.57 74.07 159.56 73.76   L 159.56 73.49   Q 159.56 72.94 159.01 72.94   L 93.03 72.94   A 0.28 0.28 0.0 0 0 92.75 73.22   L 92.74 79.74   A 0.25 0.25 0.0 0 0 92.99 79.99   L 149.50 80.00   A 0.83 0.82 12.3 0 0 150.25 79.52   Z   M 79.82 78.59   Q 81.84 77.60 83.91 79.63   A 1.16 1.13 -22.3 0 0 84.71 79.95   L 88.21 79.90   Q 89.30 79.89 89.31 78.79   L 89.35 74.17   Q 89.36 72.98 88.17 72.98   L 73.51 72.99   Q 73.01 72.99 73.01 73.49   L 73.00 79.28   Q 73.00 79.98 73.70 80.04   Q 76.39 80.26 79.82 78.59   Z   M 148.59 120.15   L 159.30 123.29   A 0.24 0.24 0.0 0 0 159.60 123.12   L 171.88 81.13   A 5.79 5.77 -73.7 0 0 167.96 73.95   L 167.87 73.93   A 5.79 5.77 -73.7 0 0 160.70 77.86   L 148.43 119.86   A 0.24 0.24 0.0 0 0 148.59 120.15   Z   M 154.94 77.64   A 0.33 0.33 0.0 0 0 154.83 77.70   L 152.95 79.41   A 0.33 0.33 0.0 0 0 153.18 79.99   L 157.16 79.92   A 0.33 0.33 0.0 0 0 157.47 79.67   L 158.13 77.02   A 0.33 0.33 0.0 0 0 157.70 76.63   L 154.94 77.64   Z   M 30.47 80.70   A 0.33 0.33 0.0 0 0 30.03 80.75   L 25.67 85.59   A 0.33 0.33 0.0 0 0 25.67 86.02   L 37.55 100.11   A 0.33 0.33 0.0 0 0 38.04 100.12   L 45.72 91.80   A 0.33 0.33 0.0 0 0 45.67 91.30   L 30.47 80.70   Z   M 146.65 90.04   A 0.37 0.37 0.0 0 0 147.01 89.77   L 149.21 82.04   A 0.37 0.37 0.0 0 0 148.86 81.57   L 93.11 81.70   A 0.37 0.37 0.0 0 0 92.74 82.07   L 92.76 89.63   A 0.37 0.37 0.0 0 0 93.13 90.00   L 146.65 90.04   Z   M 85.20 82.53   C 85.15 88.54 76.87 87.85 76.89 82.63   A 0.91 0.90 0.3 0 0 75.99 81.73   L 73.79 81.70   A 0.78 0.78 0.0 0 0 73.01 82.47   L 72.99 89.24   Q 72.99 90.00 73.74 90.00   L 88.79 90.00   Q 89.32 90.00 89.32 89.46   L 89.31 82.51   Q 89.31 81.71 88.51 81.71   L 86.03 81.71   Q 85.21 81.71 85.20 82.53   Z   M 156.88 82.15   A 0.30 0.30 0.0 0 0 156.60 81.76   L 151.89 81.67   A 0.30 0.30 0.0 0 0 151.59 81.90   L 149.58 89.63   A 0.30 0.30 0.0 0 0 149.87 90.01   L 154.41 89.99   A 0.30 0.30 0.0 0 0 154.70 89.77   L 156.88 82.15   Z   M 57.4224 94.8955   A 0.33 0.33 0.0 0 0 57.4004 94.4293   L 52.1934 89.6913   A 0.33 0.33 0.0 0 0 51.7273 89.7133   L 36.5576 106.3845   A 0.33 0.33 0.0 0 0 36.5796 106.8507   L 41.7866 111.5887   A 0.33 0.33 0.0 0 0 42.2527 111.5667   L 57.4224 94.8955   Z   M 49.77 123.15   L 69.27 101.71   A 0.61 0.60 -47.7 0 1 70.12 101.66   L 103.08 131.67   A 0.64 0.64 0.0 0 1 103.11 132.60   L 99.65 136.18   Q 99.22 136.64 99.85 136.66   Q 109.16 136.94 111.75 136.70   Q 113.63 136.53 114.68 134.82   Q 114.95 134.38 114.57 134.02   L 66.85 90.26   A 0.64 0.64 0.0 0 0 65.94 90.30   L 38.04 121.08   Q 36.69 122.56 38.22 123.84   L 53.08 136.30   Q 53.55 136.69 54.16 136.70   L 62.80 136.76   A 0.39 0.39 0.0 0 0 63.07 136.08   L 49.82 124.09   Q 49.32 123.64 49.77 123.15   Z   M 73.34 91.77   A 0.33 0.33 0.0 0 0 73.11 92.34   L 80.85 99.42   A 0.33 0.33 0.0 0 0 81.07 99.51   L 89.06 99.49   A 0.33 0.33 0.0 0 0 89.38 99.16   L 89.28 92.07   A 0.33 0.33 0.0 0 0 88.94 91.74   L 73.34 91.77   Z   M 143.99 99.52   A 0.30 0.30 0.0 0 0 144.28 99.30   L 146.36 92.10   A 0.30 0.30 0.0 0 0 146.07 91.72   L 93.06 91.74   A 0.30 0.30 0.0 0 0 92.76 92.04   L 92.74 99.20   A 0.30 0.30 0.0 0 0 93.04 99.50   L 143.99 99.52   Z   M 146.81 99.11   A 0.31 0.31 0.0 0 0 147.11 99.51   L 151.68 99.49   A 0.31 0.31 0.0 0 0 151.97 99.27   L 154.04 92.13   A 0.31 0.31 0.0 0 0 153.75 91.73   L 149.16 91.75   A 0.31 0.31 0.0 0 0 148.87 91.97   L 146.81 99.11   Z   M 197.51 97.79   L 197.80 100.34   Q 197.90 101.27 198.84 101.25   L 199.41 101.24   A 1.45 1.45 0.0 0 0 200.79 100.14   C 201.43 97.60 203.84 93.51 200.23 91.72   Q 199.75 91.48 199.25 91.63   L 193.60 93.28   A 1.81 1.81 0.0 0 0 194.46 96.79   Q 195.91 96.50 196.98 97.03   Q 197.45 97.27 197.51 97.79   Z   M 162.10 124.24   A 0.33 0.33 0.0 0 0 162.04 124.34   L 160.87 127.10   A 0.33 0.33 0.0 0 0 161.41 127.46   L 191.58 97.24   A 0.33 0.33 0.0 0 0 191.67 97.02   L 191.75 94.57   A 0.33 0.33 0.0 0 0 191.19 94.33   L 162.10 124.24   Z   M 161.13 129.52   C 159.65 131.00 159.01 134.10 158.55 136.01   Q 158.41 136.58 158.98 136.70   C 160.51 137.02 161.58 136.81 162.76 135.63   Q 179.53 118.86 196.31 102.08   A 1.02 0.99 63.9 0 0 196.59 101.23   L 196.25 98.77   Q 196.19 98.30 195.74 98.16   Q 193.25 97.39 192.20 98.44   Q 176.67 113.99 161.13 129.52   Z   M 83.51 101.07   A 0.33 0.33 0.0 0 0 83.28 101.64   L 88.76 106.56   A 0.33 0.33 0.0 0 0 89.31 106.32   L 89.38 101.57   A 0.33 0.33 0.0 0 0 89.06 101.24   L 83.51 101.07   Z   M 146.93 105.47   C 144.76 109.46 138.76 105.64 141.86 102.36   Q 142.20 101.99 142.50 101.57   Q 142.84 101.10 142.26 101.10   L 93.06 101.13   Q 92.75 101.13 92.75 101.44   L 92.74 108.50   A 0.27 0.26 -90.0 0 0 93.00 108.77   L 147.94 108.78   Q 149.27 108.78 149.63 107.50   L 151.08 102.39   Q 151.37 101.35 150.29 101.28   L 146.45 101.03   Q 145.62 100.98 146.14 101.63   Q 147.86 103.76 146.93 105.47   Z   M 198.6237 102.0928   A 0.27 0.27 0.0 0 0 198.2419 102.0921   L 163.9440 136.2704   A 0.27 0.27 0.0 0 0 163.9434 136.6522   L 164.5363 137.2472   A 0.27 0.27 0.0 0 0 164.9181 137.2479   L 199.2160 103.0696   A 0.27 0.27 0.0 0 0 199.2166 102.6878   L 198.6237 102.0928   Z   M 100.74 131.77   L 69.99 103.76   A 0.35 0.34 42.1 0 0 69.50 103.78   L 52.05 123.03   Q 51.64 123.48 52.09 123.89   L 65.79 136.24   A 1.90 1.89 65.7 0 0 67.05 136.72   Q 80.47 136.75 94.19 136.75   C 97.50 136.75 99.15 135.06 100.83 132.57   Q 101.13 132.12 100.74 131.77   Z   M 93.78 110.43   A 0.31 0.31 0.0 0 0 93.58 110.97   L 101.27 117.90   A 0.31 0.31 0.0 0 0 101.48 117.98   L 146.36 118.01   A 0.31 0.31 0.0 0 0 146.66 117.79   L 148.72 110.69   A 0.31 0.31 0.0 0 0 148.43 110.29   L 93.78 110.43   Z   M 143.63 127.70   A 0.32 0.32 0.0 0 0 143.94 127.47   L 146.14 119.92   A 0.32 0.32 0.0 0 0 145.83 119.51   L 103.80 119.54   A 0.32 0.32 0.0 0 0 103.59 120.10   L 111.89 127.57   A 0.32 0.32 0.0 0 0 112.10 127.65   L 143.63 127.70   Z   M 145.57 136.23   Q 145.74 136.14 146.01 136.15   A 0.62 0.61 22.4 0 0 146.48 135.96   L 157.44 125.17   Q 157.99 124.62 157.25 124.41   L 148.31 121.81   Q 145.01 128.43 143.59 136.08   A 0.58 0.58 0.0 0 0 144.13 136.76   Q 144.89 136.80 145.57 136.23   Z   M 152.54 136.09   C 154.67 133.85 158.30 131.59 158.10 128.55   Q 158.07 128.08 157.74 128.41   L 150.14 135.98   A 0.38 0.37 -68.7 0 0 150.42 136.62   L 151.46 136.58   A 1.60 1.59 20.3 0 0 152.54 136.09   Z   M 118.63 133.67   A 0.31 0.31 0.0 0 1 118.67 134.09   L 116.98 136.24   A 0.31 0.31 0.0 0 0 117.22 136.74   L 141.07 136.73   A 0.31 0.31 0.0 0 0 141.36 136.50   L 143.32 129.62   A 0.31 0.31 0.0 0 0 143.02 129.23   L 114.47 129.24   A 0.31 0.31 0.0 0 0 114.26 129.78   L 118.63 133.67   Z   M 154.7854 136.8763   A 1.44 0.61 127.9 0 0 156.1513 136.1147   A 1.44 0.61 127.9 0 0 156.5546 134.6037   A 1.44 0.61 127.9 0 0 155.1887 135.3653   A 1.44 0.61 127.9 0 0 154.7854 136.8763   Z"
     id="path43" />
  <path
     fill="#f7f3e8"
     d="   M 78.44 41.07   Q 76.86 43.87 73.50 43.21   A 0.56 0.56 0.0 0 1 73.05 42.66   L 72.98 28.64   Q 72.98 28.00 73.62 28.00   L 88.78 28.02   A 0.52 0.52 0.0 0 1 89.30 28.54   L 89.32 42.72   Q 89.32 43.25 88.78 43.24   L 85.77 43.19   Q 85.28 43.19 85.03 42.76   Q 83.08 39.39 79.10 40.55   A 1.16 1.15 -82.9 0 0 78.44 41.07   Z"
     id="path44" />
  <rect
     fill="#f7f3e8"
     x="92.74"
     y="28.02"
     width="68.32"
     height="15.24"
     rx="0.41"
     id="rect44" />
  <path
     fill="#f7f3e8"
     d="   M 77.05 45.61   C 78.66 49.81 83.86 49.76 85.15 45.46   Q 85.29 45.00 85.78 45.00   L 88.39 44.99   Q 89.30 44.98 89.30 45.89   L 89.36 52.06   Q 89.36 52.98 88.44 52.98   L 73.49 52.98   Q 72.99 52.98 73.00 52.49   L 73.03 45.72   Q 73.04 44.98 73.78 44.99   L 76.21 45.02   A 0.91 0.91 0.0 0 1 77.05 45.61   Z"
     id="path45" />
  <rect
     fill="#f7f3e8"
     x="92.73"
     y="45.00"
     width="68.36"
     height="8.00"
     rx="0.43"
     id="rect45" />
  <rect
     fill="#f7f3e8"
     x="92.73"
     y="54.62"
     width="68.36"
     height="8.04"
     rx="0.46"
     id="rect46" />
  <rect
     fill="#f7f3e8"
     x="-8.16"
     y="-3.97"
     transform="translate(81.18,58.65) rotate(-0.1)"
     width="16.32"
     height="7.94"
     rx="0.39"
     id="rect47" />
  <path
     fill="#f7f3e8"
     d="   M 167.56 70.47   A 0.74 0.74 0.0 0 1 167.06 69.55   L 168.26 65.51   A 2.65 1.92 -73.5 0 1 170.85 63.52   L 171.06 63.58   A 2.65 1.92 -73.5 0 1 172.15 66.66   L 170.96 70.70   A 0.74 0.74 0.0 0 1 170.04 71.20   L 167.56 70.47   Z"
     id="path47" />
  <rect
     fill="#f7f3e8"
     x="92.74"
     y="64.24"
     width="68.30"
     height="6.96"
     rx="0.32"
     id="rect48" />
  <rect
     fill="#f7f3e8"
     x="73.02"
     y="64.25"
     width="16.32"
     height="6.88"
     rx="0.37"
     id="rect49" />
  <path
     fill="#f7f3e8"
     d="   M 159.25 74.07   C 155.09 74.14 151.98 75.62 150.25 79.52   A 0.83 0.82 12.3 0 1 149.50 80.00   L 92.99 79.99   A 0.25 0.25 0.0 0 1 92.74 79.74   L 92.75 73.22   A 0.28 0.28 0.0 0 1 93.03 72.94   L 159.01 72.94   Q 159.56 72.94 159.56 73.49   L 159.56 73.76   Q 159.57 74.07 159.25 74.07   Z"
     id="path49" />
  <path
     fill="#f7f3e8"
     d="   M 79.82 78.59   Q 76.39 80.26 73.70 80.04   Q 73.00 79.98 73.00 79.28   L 73.01 73.49   Q 73.01 72.99 73.51 72.99   L 88.17 72.98   Q 89.36 72.98 89.35 74.17   L 89.31 78.79   Q 89.30 79.89 88.21 79.90   L 84.71 79.95   A 1.16 1.13 -22.3 0 1 83.91 79.63   Q 81.84 77.60 79.82 78.59   Z"
     id="path50" />
  <path
     fill="#f7f3e8"
     d="   M 148.59 120.15   A 0.24 0.24 0.0 0 1 148.43 119.86   L 160.70 77.86   A 5.79 5.77 -73.7 0 1 167.87 73.93   L 167.96 73.95   A 5.79 5.77 -73.7 0 1 171.88 81.13   L 159.60 123.12   A 0.24 0.24 0.0 0 1 159.30 123.29   L 148.59 120.15   Z"
     id="path51" />
  <path
     fill="#f7f3e8"
     d="   M 154.94 77.64   L 157.70 76.63   A 0.33 0.33 0.0 0 1 158.13 77.02   L 157.47 79.67   A 0.33 0.33 0.0 0 1 157.16 79.92   L 153.18 79.99   A 0.33 0.33 0.0 0 1 152.95 79.41   L 154.83 77.70   A 0.33 0.33 0.0 0 1 154.94 77.64   Z"
     id="path52" />
  <path
     fill="#f7f3e8"
     d="   M 30.47 80.70   L 45.67 91.30   A 0.33 0.33 0.0 0 1 45.72 91.80   L 38.04 100.12   A 0.33 0.33 0.0 0 1 37.55 100.11   L 25.67 86.02   A 0.33 0.33 0.0 0 1 25.67 85.59   L 30.03 80.75   A 0.33 0.33 0.0 0 1 30.47 80.70   Z   M 43.9836 92.8380   A 0.29 0.29 0.0 0 0 43.9294 92.4315   L 30.6150 82.2519   A 0.29 0.29 0.0 0 0 30.2085 82.3061   L 30.1964 82.3220   A 0.29 0.29 0.0 0 0 30.2506 82.7285   L 43.5650 92.9081   A 0.29 0.29 0.0 0 0 43.9715 92.8539   L 43.9836 92.8380   Z   M 41.3642 95.6265   A 0.30 0.30 0.0 0 0 41.3465 95.2027   L 28.6267 83.5062   A 0.30 0.30 0.0 0 0 28.2028 83.5240   L 28.1758 83.5535   A 0.30 0.30 0.0 0 0 28.1935 83.9773   L 40.9133 95.6738   A 0.30 0.30 0.0 0 0 41.3372 95.6560   L 41.3642 95.6265   Z   M 27.6411 85.3931   A 0.32 0.32 0.0 0 0 27.1887 85.3805   L 27.1596 85.4079   A 0.32 0.32 0.0 0 0 27.1470 85.8603   L 38.5389 97.9069   A 0.32 0.32 0.0 0 0 38.9913 97.9195   L 39.0204 97.8921   A 0.32 0.32 0.0 0 0 39.0330 97.4397   L 27.6411 85.3931   Z"
     id="path53" />
  <path
     fill="#f7f3e8"
     d="   M 146.65 90.04   L 93.13 90.00   A 0.37 0.37 0.0 0 1 92.76 89.63   L 92.74 82.07   A 0.37 0.37 0.0 0 1 93.11 81.70   L 148.86 81.57   A 0.37 0.37 0.0 0 1 149.21 82.04   L 147.01 89.77   A 0.37 0.37 0.0 0 1 146.65 90.04   Z"
     id="path54" />
  <path
     fill="#f7f3e8"
     d="   M 76.89 82.63   C 76.87 87.85 85.15 88.54 85.20 82.53   Q 85.21 81.71 86.03 81.71   L 88.51 81.71   Q 89.31 81.71 89.31 82.51   L 89.32 89.46   Q 89.32 90.00 88.79 90.00   L 73.74 90.00   Q 72.99 90.00 72.99 89.24   L 73.01 82.47   A 0.78 0.78 0.0 0 1 73.79 81.70   L 75.99 81.73   A 0.91 0.90 0.3 0 1 76.89 82.63   Z"
     id="path55" />
  <path
     fill="#f7f3e8"
     d="   M 156.88 82.15   L 154.70 89.77   A 0.30 0.30 0.0 0 1 154.41 89.99   L 149.87 90.01   A 0.30 0.30 0.0 0 1 149.58 89.63   L 151.59 81.90   A 0.30 0.30 0.0 0 1 151.89 81.67   L 156.60 81.76   A 0.30 0.30 0.0 0 1 156.88 82.15   Z"
     id="path56" />
  <rect
     fill="#704027"
     x="-8.67"
     y="-0.30"
     transform="translate(37.09,87.58) rotate(37.4)"
     width="17.34"
     height="0.60"
     rx="0.29"
     id="rect56" />
  <rect
     fill="#704027"
     x="-8.94"
     y="-0.32"
     transform="translate(34.77,89.59) rotate(42.6)"
     width="17.88"
     height="0.64"
     rx="0.30"
     id="rect57" />
  <rect
     fill="#704027"
     x="-0.34"
     y="-8.61"
     transform="translate(33.09,91.65) rotate(-43.4)"
     width="0.68"
     height="17.22"
     rx="0.32"
     id="rect58" />
  <rect
     fill="#f7f3e8"
     x="-3.85"
     y="-11.60"
     transform="translate(46.99,100.64) rotate(42.3)"
     width="7.70"
     height="23.20"
     rx="0.33"
     id="rect59" />
  <path
     fill="#f7f3e8"
     d="   M 49.82 124.09   L 63.07 136.08   A 0.39 0.39 0.0 0 1 62.80 136.76   L 54.16 136.70   Q 53.55 136.69 53.08 136.30   L 38.22 123.84   Q 36.69 122.56 38.04 121.08   L 65.94 90.30   A 0.64 0.64 0.0 0 1 66.85 90.26   L 114.57 134.02   Q 114.95 134.38 114.68 134.82   Q 113.63 136.53 111.75 136.70   Q 109.16 136.94 99.85 136.66   Q 99.22 136.64 99.65 136.18   L 103.11 132.60   A 0.64 0.64 0.0 0 0 103.08 131.67   L 70.12 101.66   A 0.61 0.60 -47.7 0 0 69.27 101.71   L 49.77 123.15   Q 49.32 123.64 49.82 124.09   Z"
     id="path59" />
  <path
     fill="#f7f3e8"
     d="   M 73.34 91.77   L 88.94 91.74   A 0.33 0.33 0.0 0 1 89.28 92.07   L 89.38 99.16   A 0.33 0.33 0.0 0 1 89.06 99.49   L 81.07 99.51   A 0.33 0.33 0.0 0 1 80.85 99.42   L 73.11 92.34   A 0.33 0.33 0.0 0 1 73.34 91.77   Z"
     id="path60" />
  <path
     fill="#f7f3e8"
     d="   M 143.99 99.52   L 93.04 99.50   A 0.30 0.30 0.0 0 1 92.74 99.20   L 92.76 92.04   A 0.30 0.30 0.0 0 1 93.06 91.74   L 146.07 91.72   A 0.30 0.30 0.0 0 1 146.36 92.10   L 144.28 99.30   A 0.30 0.30 0.0 0 1 143.99 99.52   Z"
     id="path61" />
  <path
     fill="#f7f3e8"
     d="   M 146.81 99.11   L 148.87 91.97   A 0.31 0.31 0.0 0 1 149.16 91.75   L 153.75 91.73   A 0.31 0.31 0.0 0 1 154.04 92.13   L 151.97 99.27   A 0.31 0.31 0.0 0 1 151.68 99.49   L 147.11 99.51   A 0.31 0.31 0.0 0 1 146.81 99.11   Z"
     id="path62" />
  <path
     fill="#f7f3e8"
     d="   M 196.98 97.03   Q 195.91 96.50 194.46 96.79   A 1.81 1.81 0.0 0 1 193.60 93.28   L 199.25 91.63   Q 199.75 91.48 200.23 91.72   C 203.84 93.51 201.43 97.60 200.79 100.14   A 1.45 1.45 0.0 0 1 199.41 101.24   L 198.84 101.25   Q 197.90 101.27 197.80 100.34   L 197.51 97.79   Q 197.45 97.27 196.98 97.03   Z"
     id="path63" />
  <path
     fill="#f7f3e8"
     d="   M 162.10 124.24   L 191.19 94.33   A 0.33 0.33 0.0 0 1 191.75 94.57   L 191.67 97.02   A 0.33 0.33 0.0 0 1 191.58 97.24   L 161.41 127.46   A 0.33 0.33 0.0 0 1 160.87 127.10   L 162.04 124.34   A 0.33 0.33 0.0 0 1 162.10 124.24   Z"
     id="path64" />
  <path
     fill="#f7f3e8"
     d="   M 158.55 136.01   C 159.01 134.10 159.65 131.00 161.13 129.52   Q 176.67 113.99 192.20 98.44   Q 193.25 97.39 195.74 98.16   Q 196.19 98.30 196.25 98.77   L 196.59 101.23   A 1.02 0.99 63.9 0 1 196.31 102.08   Q 179.53 118.86 162.76 135.63   C 161.58 136.81 160.51 137.02 158.98 136.70   Q 158.41 136.58 158.55 136.01   Z"
     id="path65" />
  <path
     fill="#f7f3e8"
     d="   M 83.51 101.07   L 89.06 101.24   A 0.33 0.33 0.0 0 1 89.38 101.57   L 89.31 106.32   A 0.33 0.33 0.0 0 1 88.76 106.56   L 83.28 101.64   A 0.33 0.33 0.0 0 1 83.51 101.07   Z"
     id="path66" />
  <path
     fill="#f7f3e8"
     d="   M 146.93 105.47   Q 147.86 103.76 146.14 101.63   Q 145.62 100.98 146.45 101.03   L 150.29 101.28   Q 151.37 101.35 151.08 102.39   L 149.63 107.50   Q 149.27 108.78 147.94 108.78   L 93.00 108.77   A 0.27 0.26 -90.0 0 1 92.74 108.50   L 92.75 101.44   Q 92.75 101.13 93.06 101.13   L 142.26 101.10   Q 142.84 101.10 142.50 101.57   Q 142.20 101.99 141.86 102.36   C 138.76 105.64 144.76 109.46 146.93 105.47   Z"
     id="path67" />
  <rect
     fill="#f7f3e8"
     x="-24.48"
     y="-0.69"
     transform="translate(181.58,119.67) rotate(-44.9)"
     width="48.96"
     height="1.38"
     rx="0.27"
     id="rect67" />
  <path
     fill="#f7f3e8"
     d="   M 69.99 103.76   L 100.74 131.77   Q 101.13 132.12 100.83 132.57   C 99.15 135.06 97.50 136.75 94.19 136.75   Q 80.47 136.75 67.05 136.72   A 1.90 1.89 65.7 0 1 65.79 136.24   L 52.09 123.89   Q 51.64 123.48 52.05 123.03   L 69.50 103.78   A 0.35 0.34 42.1 0 1 69.99 103.76   Z"
     id="path68" />
  <path
     fill="#f7f3e8"
     d="   M 93.78 110.43   L 148.43 110.29   A 0.31 0.31 0.0 0 1 148.72 110.69   L 146.66 117.79   A 0.31 0.31 0.0 0 1 146.36 118.01   L 101.48 117.98   A 0.31 0.31 0.0 0 1 101.27 117.90   L 93.58 110.97   A 0.31 0.31 0.0 0 1 93.78 110.43   Z"
     id="path69" />
  <path
     fill="#f7f3e8"
     d="   M 143.63 127.70   L 112.10 127.65   A 0.32 0.32 0.0 0 1 111.89 127.57   L 103.59 120.10   A 0.32 0.32 0.0 0 1 103.80 119.54   L 145.83 119.51   A 0.32 0.32 0.0 0 1 146.14 119.92   L 143.94 127.47   A 0.32 0.32 0.0 0 1 143.63 127.70   Z"
     id="path70" />
  <path
     fill="#f7f3e8"
     d="   M 148.31 121.81   Q 146.87 128.19 145.20 134.25   Q 144.98 135.08 145.57 136.23   Q 144.89 136.80 144.13 136.76   A 0.58 0.58 0.0 0 1 143.59 136.08   Q 145.01 128.43 148.31 121.81   Z"
     id="path71" />
  <path
     fill="#cdb9a6"
     d="   M 148.31 121.81   L 157.25 124.41   Q 157.99 124.62 157.44 125.17   L 146.48 135.96   A 0.62 0.61 22.4 0 1 146.01 136.15   Q 145.74 136.14 145.57 136.23   Q 144.98 135.08 145.20 134.25   Q 146.87 128.19 148.31 121.81   Z"
     id="path72" />
  <path
     fill="#cdb9a6"
     d="   M 152.54 136.09   A 1.60 1.59 20.3 0 1 151.46 136.58   L 150.42 136.62   A 0.38 0.37 -68.7 0 1 150.14 135.98   L 157.74 128.41   Q 158.07 128.08 158.10 128.55   C 158.30 131.59 154.67 133.85 152.54 136.09   Z"
     id="path73" />
  <path
     fill="#f7f3e8"
     d="   M 118.63 133.67   L 114.26 129.78   A 0.31 0.31 0.0 0 1 114.47 129.24   L 143.02 129.23   A 0.31 0.31 0.0 0 1 143.32 129.62   L 141.36 136.50   A 0.31 0.31 0.0 0 1 141.07 136.73   L 117.22 136.74   A 0.31 0.31 0.0 0 1 116.98 136.24   L 118.67 134.09   A 0.31 0.31 0.0 0 0 118.63 133.67   Z"
     id="path74" />
  <ellipse
     fill="#cdb9a6"
     cx="0.00"
     cy="0.00"
     transform="translate(155.67,135.74) rotate(127.9)"
     rx="1.44"
     ry="0.61"
     id="ellipse74" />
</svg>
