<?xml version="1.0" encoding="UTF-8" standalone="no"?>
<svg
   version="1.1"
   viewBox="0.00 0.00 210.00 248.00"
   width="210.00"
   height="248.00"
   id="svg26"
   sodipodi:docname="logo.svg"
   inkscape:version="1.3 (0e150ed6c4, 2023-07-21)"
   xmlns:inkscape="http://www.inkscape.org/namespaces/inkscape"
   xmlns:sodipodi="http://sodipodi.sourceforge.net/DTD/sodipodi-0.dtd"
   xmlns="http://www.w3.org/2000/svg"
   xmlns:svg="http://www.w3.org/2000/svg">
  <defs
     id="defs26" />
  <sodipodi:namedview
     id="namedview26"
     pagecolor="#ffffff"
     bordercolor="#000000"
     borderopacity="0.25"
     inkscape:showpageshadow="2"
     inkscape:pageopacity="0.0"
     inkscape:pagecheckerboard="0"
     inkscape:deskcolor="#d1d1d1"
     inkscape:zoom="3.1330645"
     inkscape:cx="95.433719"
     inkscape:cy="124"
     inkscape:window-width="1920"
     inkscape:window-height="991"
     inkscape:window-x="-9"
     inkscape:window-y="-9"
     inkscape:window-maximized="1"
     inkscape:current-layer="svg26" />
  <g
     stroke-width="2.00"
     fill="none"
     stroke-linecap="butt"
     id="g15">
    <path
       stroke="#ada6a0"
       vector-effect="non-scaling-stroke"
       d="   M 160.65 94.38   L 160.51 14.00   A 2.77 2.76 89.9 0 0 157.75 11.24   L 57.07 11.29   Q 54.18 11.30 54.18 14.18   L 53.96 94.30   Q 53.96 95.35 53.20 96.10   Q 33.68 115.36 30.10 141.79   C 23.44 190.93 64.13 233.70 113.49 229.75   C 180.56 224.39 209.09 142.94 161.31 95.96   A 2.22 2.21 -67.8 0 1 160.65 94.38"
       id="path1" />
    <path
       stroke="#ada6a0"
       vector-effect="non-scaling-stroke"
       d="   M 73.41 17.34   A 0.46 0.46 0.0 0 0 72.95 16.88   L 60.05 16.88   A 0.46 0.46 0.0 0 0 59.59 17.34   L 59.59 132.82   A 0.46 0.46 0.0 0 0 60.05 133.28   L 72.95 133.28   A 0.46 0.46 0.0 0 0 73.41 132.82   L 73.41 17.34"
       id="path2" />
    <path
       stroke="#ada6a0"
       vector-effect="non-scaling-stroke"
       d="   M 75.40 132.78   A 0.50 0.50 0.0 0 0 75.90 133.28   L 154.54 133.27   A 0.50 0.50 0.0 0 0 155.04 132.77   L 154.92 17.54   A 0.50 0.50 0.0 0 0 154.42 17.04   L 75.88 16.93   A 0.50 0.50 0.0 0 0 75.38 17.43   L 75.40 132.78"
       id="path3" />
    <path
       stroke="#968e8a"
       vector-effect="non-scaling-stroke"
       d="   M 149.23 139.06   A 0.65 0.65 0.0 0 0 148.58 138.41   L 60.12 138.41   A 0.65 0.65 0.0 0 0 59.47 139.06   L 59.47 146.48   A 0.65 0.65 0.0 0 0 60.12 147.13   L 148.58 147.13   A 0.65 0.65 0.0 0 0 149.23 146.48   L 149.23 139.06"
       id="path4" />
    <path
       stroke="#ada6a0"
       vector-effect="non-scaling-stroke"
       d="   M 156.64 151.19   A 0.70 0.70 0.0 0 0 155.94 150.49   L 60.10 150.49   A 0.70 0.70 0.0 0 0 59.40 151.19   L 59.40 152.81   A 0.70 0.70 0.0 0 0 60.10 153.51   L 155.94 153.51   A 0.70 0.70 0.0 0 0 156.64 152.81   L 156.64 151.19"
       id="path5" />
    <path
       stroke="#ada6a0"
       vector-effect="non-scaling-stroke"
       d="   M 121.5491 196.2400   A 16.69 11.11 89.9 0 0 132.6300 179.5306   A 16.69 11.11 89.9 0 0 121.4909 162.8600   A 16.69 11.11 89.9 0 0 110.4100 179.5694   A 16.69 11.11 89.9 0 0 121.5491 196.2400"
       id="path6" />
    <path
       stroke="#ada6a0"
       vector-effect="non-scaling-stroke"
       d="   M 94.5691 196.2300   A 16.69 11.10 89.9 0 0 105.6400 179.5206   A 16.69 11.10 89.9 0 0 94.5109 162.8500   A 16.69 11.10 89.9 0 0 83.4400 179.5594   A 16.69 11.10 89.9 0 0 94.5691 196.2300"
       id="path7" />
    <path
       stroke="#ada6a0"
       vector-effect="non-scaling-stroke"
       d="   M 74.29 177.81   C 77.22 174.00 77.47 168.71 73.88 165.34   C 70.89 162.54 65.25 163.20 61.67 163.54   Q 60.51 163.65 60.51 164.81   L 60.50 194.24   A 1.57 1.56 -89.1 0 0 62.01 195.81   C 68.78 196.06 77.78 196.28 78.67 187.48   Q 79.18 182.41 74.40 178.68   A 0.63 0.63 0.0 0 1 74.29 177.81"
       id="path8" />
    <path
       stroke="#ada6a0"
       vector-effect="non-scaling-stroke"
       d="   M 140.58 175.74   L 140.64 164.34   Q 140.64 163.29 139.59 163.28   L 139.15 163.27   Q 137.56 163.26 137.56 164.85   L 137.58 193.99   Q 137.58 195.40 138.98 195.63   L 139.34 195.68   A 1.03 1.03 0.0 0 0 140.53 194.71   Q 140.78 188.46 140.67 182.48   Q 140.63 180.39 143.57 178.86   Q 143.98 178.64 144.23 179.04   L 154.42 195.39   A 1.19 1.19 0.0 0 0 156.06 195.77   L 156.34 195.60   A 1.58 1.58 0.0 0 0 156.84 193.43   L 146.34 176.68   A 0.97 0.96 -39.4 0 1 146.46 175.49   L 155.77 165.82   A 1.44 1.44 0.0 0 0 155.63 163.69   L 155.38 163.50   A 1.24 1.23 41.1 0 0 153.71 163.61   L 141.66 176.17   A 0.63 0.62 -23.1 0 1 140.58 175.74"
       id="path9" />
    <path
       stroke="#ada6a0"
       vector-effect="non-scaling-stroke"
       d="   M 133.59 38.75   A 1.24 1.24 0.0 0 0 132.35 37.51   L 90.49 37.51   A 1.24 1.24 0.0 0 0 89.25 38.75   L 89.25 53.23   A 1.24 1.24 0.0 0 0 90.49 54.47   L 132.35 54.47   A 1.24 1.24 0.0 0 0 133.59 53.23   L 133.59 38.75"
       id="path10" />
    <path
       stroke="#ada6a0"
       vector-effect="non-scaling-stroke"
       d="   M 130.4633 40.6223   A 0.48 0.48 0.0 0 0 129.9791 40.1465   L 92.4605 40.4739   A 0.48 0.48 0.0 0 0 91.9847 40.9581   L 92.0767 51.4977   A 0.48 0.48 0.0 0 0 92.5609 51.9735   L 130.0795 51.6461   A 0.48 0.48 0.0 0 0 130.5553 51.1619   L 130.4633 40.6223"
       id="path11" />
    <path
       stroke="#ada6a0"
       vector-effect="non-scaling-stroke"
       d="   M 121.5300 193.1300   A 13.57 8.06 90.0 0 0 129.5900 179.5600   A 13.57 8.06 90.0 0 0 121.5300 165.9900   A 13.57 8.06 90.0 0 0 113.4700 179.5600   A 13.57 8.06 90.0 0 0 121.5300 193.1300"
       id="path12" />
    <path
       stroke="#ada6a0"
       vector-effect="non-scaling-stroke"
       d="   M 94.5163 193.1000   A 13.56 8.07 90.1 0 0 102.6100 179.5541   A 13.56 8.07 90.1 0 0 94.5637 165.9800   A 13.56 8.07 90.1 0 0 86.4700 179.5259   A 13.56 8.07 90.1 0 0 94.5163 193.1000"
       id="path13" />
    <path
       stroke="#ada6a0"
       vector-effect="non-scaling-stroke"
       d="   M 63.53 166.94   L 63.49 176.44   A 0.69 0.69 0.0 0 0 64.17 177.14   L 68.29 177.16   A 5.19 5.05 0.3 0 0 73.51 172.14   L 73.51 171.36   A 5.19 5.05 0.3 0 0 68.35 166.28   L 64.23 166.26   A 0.69 0.69 0.0 0 0 63.53 166.94"
       id="path14" />
    <path
       stroke="#ada6a0"
       vector-effect="non-scaling-stroke"
       d="   M 63.55 180.50   L 63.51 192.40   A 0.48 0.48 0.0 0 0 63.99 192.88   L 68.65 192.90   A 7.02 6.29 0.2 0 0 75.69 186.63   L 75.69 186.35   A 7.02 6.29 0.2 0 0 68.69 180.04   L 64.03 180.02   A 0.48 0.48 0.0 0 0 63.55 180.50"
       id="path15" />
  </g>
  <path
     fill="#625857"
     d="   M 160.51 14.00   L 160.65 94.38   A 2.22 2.21 -67.8 0 0 161.31 95.96   C 209.09 142.94 180.56 224.39 113.49 229.75   C 64.13 233.70 23.44 190.93 30.10 141.79   Q 33.68 115.36 53.20 96.10   Q 53.96 95.35 53.96 94.30   L 54.18 14.18   Q 54.18 11.30 57.07 11.29   L 157.75 11.24   A 2.77 2.76 89.9 0 1 160.51 14.00   Z   M 73.41 17.34   A 0.46 0.46 0.0 0 0 72.95 16.88   L 60.05 16.88   A 0.46 0.46 0.0 0 0 59.59 17.34   L 59.59 132.82   A 0.46 0.46 0.0 0 0 60.05 133.28   L 72.95 133.28   A 0.46 0.46 0.0 0 0 73.41 132.82   L 73.41 17.34   Z   M 75.40 132.78   A 0.50 0.50 0.0 0 0 75.90 133.28   L 154.54 133.27   A 0.50 0.50 0.0 0 0 155.04 132.77   L 154.92 17.54   A 0.50 0.50 0.0 0 0 154.42 17.04   L 75.88 16.93   A 0.50 0.50 0.0 0 0 75.38 17.43   L 75.40 132.78   Z   M 149.23 139.06   A 0.65 0.65 0.0 0 0 148.58 138.41   L 60.12 138.41   A 0.65 0.65 0.0 0 0 59.47 139.06   L 59.47 146.48   A 0.65 0.65 0.0 0 0 60.12 147.13   L 148.58 147.13   A 0.65 0.65 0.0 0 0 149.23 146.48   L 149.23 139.06   Z   M 156.64 151.19   A 0.70 0.70 0.0 0 0 155.94 150.49   L 60.10 150.49   A 0.70 0.70 0.0 0 0 59.40 151.19   L 59.40 152.81   A 0.70 0.70 0.0 0 0 60.10 153.51   L 155.94 153.51   A 0.70 0.70 0.0 0 0 156.64 152.81   L 156.64 151.19   Z   M 121.5491 196.2400   A 16.69 11.11 89.9 0 0 132.6300 179.5306   A 16.69 11.11 89.9 0 0 121.4909 162.8600   A 16.69 11.11 89.9 0 0 110.4100 179.5694   A 16.69 11.11 89.9 0 0 121.5491 196.2400   Z   M 94.5691 196.2300   A 16.69 11.10 89.9 0 0 105.6400 179.5206   A 16.69 11.10 89.9 0 0 94.5109 162.8500   A 16.69 11.10 89.9 0 0 83.4400 179.5594   A 16.69 11.10 89.9 0 0 94.5691 196.2300   Z   M 74.29 177.81   C 77.22 174.00 77.47 168.71 73.88 165.34   C 70.89 162.54 65.25 163.20 61.67 163.54   Q 60.51 163.65 60.51 164.81   L 60.50 194.24   A 1.57 1.56 -89.1 0 0 62.01 195.81   C 68.78 196.06 77.78 196.28 78.67 187.48   Q 79.18 182.41 74.40 178.68   A 0.63 0.63 0.0 0 1 74.29 177.81   Z   M 140.58 175.74   L 140.64 164.34   Q 140.64 163.29 139.59 163.28   L 139.15 163.27   Q 137.56 163.26 137.56 164.85   L 137.58 193.99   Q 137.58 195.40 138.98 195.63   L 139.34 195.68   A 1.03 1.03 0.0 0 0 140.53 194.71   Q 140.78 188.46 140.67 182.48   Q 140.63 180.39 143.57 178.86   Q 143.98 178.64 144.23 179.04   L 154.42 195.39   A 1.19 1.19 0.0 0 0 156.06 195.77   L 156.34 195.60   A 1.58 1.58 0.0 0 0 156.84 193.43   L 146.34 176.68   A 0.97 0.96 -39.4 0 1 146.46 175.49   L 155.77 165.82   A 1.44 1.44 0.0 0 0 155.63 163.69   L 155.38 163.50   A 1.24 1.23 41.1 0 0 153.71 163.61   L 141.66 176.17   A 0.63 0.62 -23.1 0 1 140.58 175.74   Z"
     id="path17" />
  <rect
     fill="#f7f3e8"
     x="59.59"
     y="16.88"
     width="13.82"
     height="116.40"
     rx="0.46"
     id="rect17" />
  <path
     fill="#f7f3e8"
     d="   M 75.40 132.78   L 75.38 17.43   A 0.50 0.50 0.0 0 1 75.88 16.93   L 154.42 17.04   A 0.50 0.50 0.0 0 1 154.92 17.54   L 155.04 132.77   A 0.50 0.50 0.0 0 1 154.54 133.27   L 75.90 133.28   A 0.50 0.50 0.0 0 1 75.40 132.78   Z   M 133.59 38.75   A 1.24 1.24 0.0 0 0 132.35 37.51   L 90.49 37.51   A 1.24 1.24 0.0 0 0 89.25 38.75   L 89.25 53.23   A 1.24 1.24 0.0 0 0 90.49 54.47   L 132.35 54.47   A 1.24 1.24 0.0 0 0 133.59 53.23   L 133.59 38.75   Z"
     id="path18" />
  <path
     fill="#625857"
     d="   M 133.59 53.23   A 1.24 1.24 0.0 0 1 132.35 54.47   L 90.49 54.47   A 1.24 1.24 0.0 0 1 89.25 53.23   L 89.25 38.75   A 1.24 1.24 0.0 0 1 90.49 37.51   L 132.35 37.51   A 1.24 1.24 0.0 0 1 133.59 38.75   L 133.59 53.23   Z   M 130.4633 40.6223   A 0.48 0.48 0.0 0 0 129.9791 40.1465   L 92.4605 40.4739   A 0.48 0.48 0.0 0 0 91.9847 40.9581   L 92.0767 51.4977   A 0.48 0.48 0.0 0 0 92.5609 51.9735   L 130.0795 51.6461   A 0.48 0.48 0.0 0 0 130.5553 51.1619   L 130.4633 40.6223   Z"
     id="path19" />
  <rect
     fill="#f7f3e8"
     x="-19.24"
     y="-5.75"
     transform="translate(111.27,46.06) rotate(-0.5)"
     width="38.48"
     height="11.50"
     rx="0.48"
     id="rect19" />
  <rect
     fill="#cac4bc"
     x="59.47"
     y="138.41"
     width="89.76"
     height="8.72"
     rx="0.65"
     id="rect20" />
  <rect
     fill="#f7f3e8"
     x="59.40"
     y="150.49"
     width="97.24"
     height="3.02"
     rx="0.70"
     id="rect21" />
  <path
     fill="#f7f3e8"
     d="   M 121.5491 196.2400   A 16.69 11.11 89.9 0 1 110.4100 179.5694   A 16.69 11.11 89.9 0 1 121.4909 162.8600   A 16.69 11.11 89.9 0 1 132.6300 179.5306   A 16.69 11.11 89.9 0 1 121.5491 196.2400   Z   M 121.5300 193.1300   A 13.57 8.06 90.0 0 0 129.5900 179.5600   A 13.57 8.06 90.0 0 0 121.5300 165.9900   A 13.57 8.06 90.0 0 0 113.4700 179.5600   A 13.57 8.06 90.0 0 0 121.5300 193.1300   Z"
     id="path21" />
  <path
     fill="#f7f3e8"
     d="   M 94.5691 196.2300   A 16.69 11.10 89.9 0 1 83.4400 179.5594   A 16.69 11.10 89.9 0 1 94.5109 162.8500   A 16.69 11.10 89.9 0 1 105.6400 179.5206   A 16.69 11.10 89.9 0 1 94.5691 196.2300   Z   M 94.5163 193.1000   A 13.56 8.07 90.1 0 0 102.6100 179.5541   A 13.56 8.07 90.1 0 0 94.5637 165.9800   A 13.56 8.07 90.1 0 0 86.4700 179.5259   A 13.56 8.07 90.1 0 0 94.5163 193.1000   Z"
     id="path22" />
  <path
     fill="#f7f3e8"
     d="   M 74.40 178.68   Q 79.18 182.41 78.67 187.48   C 77.78 196.28 68.78 196.06 62.01 195.81   A 1.57 1.56 -89.1 0 1 60.50 194.24   L 60.51 164.81   Q 60.51 163.65 61.67 163.54   C 65.25 163.20 70.89 162.54 73.88 165.34   C 77.47 168.71 77.22 174.00 74.29 177.81   A 0.63 0.63 0.0 0 0 74.40 178.68   Z   M 63.53 166.94   L 63.49 176.44   A 0.69 0.69 0.0 0 0 64.17 177.14   L 68.29 177.16   A 5.19 5.05 0.3 0 0 73.51 172.14   L 73.51 171.36   A 5.19 5.05 0.3 0 0 68.35 166.28   L 64.23 166.26   A 0.69 0.69 0.0 0 0 63.53 166.94   Z   M 63.55 180.50   L 63.51 192.40   A 0.48 0.48 0.0 0 0 63.99 192.88   L 68.65 192.90   A 7.02 6.29 0.2 0 0 75.69 186.63   L 75.69 186.35   A 7.02 6.29 0.2 0 0 68.69 180.04   L 64.03 180.02   A 0.48 0.48 0.0 0 0 63.55 180.50   Z"
     id="path23" />
  <path
     fill="#f7f3e8"
     d="   M 140.58 175.74   A 0.63 0.62 -23.1 0 0 141.66 176.17   L 153.71 163.61   A 1.24 1.23 41.1 0 1 155.38 163.50   L 155.63 163.69   A 1.44 1.44 0.0 0 1 155.77 165.82   L 146.46 175.49   A 0.97 0.96 -39.4 0 0 146.34 176.68   L 156.84 193.43   A 1.58 1.58 0.0 0 1 156.34 195.60   L 156.06 195.77   A 1.19 1.19 0.0 0 1 154.42 195.39   L 144.23 179.04   Q 143.98 178.64 143.57 178.86   Q 140.63 180.39 140.67 182.48   Q 140.78 188.46 140.53 194.71   A 1.03 1.03 0.0 0 1 139.34 195.68   L 138.98 195.63   Q 137.58 195.40 137.58 193.99   L 137.56 164.85   Q 137.56 163.26 139.15 163.27   L 139.59 163.28   Q 140.64 163.29 140.64 164.34   L 140.58 175.74   Z"
     id="path24" />
  <ellipse
     fill="#625857"
     cx="0.00"
     cy="0.00"
     transform="translate(94.54,179.54) rotate(90.1)"
     rx="13.56"
     ry="8.07"
     id="ellipse24" />
  <ellipse
     fill="#625857"
     cx="0.00"
     cy="0.00"
     transform="translate(121.53,179.56) rotate(90.0)"
     rx="13.57"
     ry="8.06"
     id="ellipse25" />
  <path
     fill="#625857"
     d="   M 63.53 166.94   A 0.69 0.69 0.0 0 1 64.23 166.26   L 68.35 166.28   A 5.19 5.05 0.3 0 1 73.51 171.36   L 73.51 172.14   A 5.19 5.05 0.3 0 1 68.29 177.16   L 64.17 177.14   A 0.69 0.69 0.0 0 1 63.49 176.44   L 63.53 166.94   Z"
     id="path25" />
  <path
     fill="#625857"
     d="   M 63.55 180.50   A 0.48 0.48 0.0 0 1 64.03 180.02   L 68.69 180.04   A 7.02 6.29 0.2 0 1 75.69 186.35   L 75.69 186.63   A 7.02 6.29 0.2 0 1 68.65 192.90   L 63.99 192.88   A 0.48 0.48 0.0 0 1 63.51 192.40   L 63.55 180.50   Z"
     id="path26" />
</svg>
